<?xml version="1.0" encoding="UTF-8"?>
<svg xmlns="http://www.w3.org/2000/svg" xmlns:xlink="http://www.w3.org/1999/xlink" version="1.1" id="LOGO" x="0px" y="0px" viewBox="0 0 83.9 83.9" style="enable-background:new 0 0 83.9 83.9;" xml:space="preserve"> <style type="text/css"> .st0{fill:#52C1FF;} .st1{fill:#FFFFFF;} .st2{fill:#001D67;} </style> <g> <g> <g> <circle class="st0" cx="42" cy="42" r="42"></circle> <path class="st1" d="M27.4,24.7h-9.5v7.9h9.4c2.6,0,4.4,2.2,4.4,4.7v2c-0.9-0.7-2.7-0.9-4-0.9h-7.1v7.4H27c4.1,0,4.6,2.6,4.6,4.4 v10.5H40V36.5C40,28.3,33.9,24.7,27.4,24.7z"></path> <path class="st1" d="M56.5,24.7H66v7.9h-9.4c-2.6,0-4.4,2.2-4.4,4.7v2c0.9-0.7,2.7-0.9,4-0.9h7.1v7.4h-6.5 c-4.1,0-4.6,2.6-4.6,4.4v10.5h-8.3V36.5C43.9,28.3,50,24.7,56.5,24.7z"></path> </g> <path class="st2" d="M226.6,12h-17.1c-11,0-16.8,8.1-16.8,15.6v44.3h13.2V30.4c0-6.9,4.9-7.6,7.1-7.6h10.3c2.1,0,7.1,0.7,7.1,7.6 v41.5h13.2V27.6C243.4,20.1,237.6,12,226.6,12z"></path> <path class="st2" d="M319.8,31.8v40.1H333V46.2h19.9V35.4H333v-3.6c0-5.5,3.1-8.9,9.4-8.9h16.4V12h-16.4 C328.2,12,319.8,19,319.8,31.8z"></path> <path class="st2" d="M117.2,31.8v40.1h13.2V46.2h19.9V35.4h-19.9v-3.6c0-5.5,3.1-8.9,9.4-8.9h16.4V12h-16.4 C125.6,12,117.2,19,117.2,31.8z"></path> <path class="st2" d="M440.4,12h-1.7c-5.1,0-7.8,1.1-7.8,7.5v2.1h0v50.4H444V12H440.4L440.4,12z"></path> <path class="st2" d="M176.4,12h-1.7c-5.1,0-7.8,1.1-7.8,7.5v2.1h0v50.4H180V12h-3H176.4z"></path> <path class="st2" d="M290.3,12h-17.1c-11,0-16.8,8.1-16.8,15.6v44.3h13.2V55.2H294v16.7h13.2V27.6C307.1,20.1,301.3,12,290.3,12z M294,44.2h-24.4V30.4c0-6.9,4.9-7.6,7.1-7.6h10.3c2.1,0,7.1,0.7,7.1,7.6V44.2z"></path> <path class="st2" d="M550.1,12H533c-11,0-16.8,8.1-16.8,15.6v44.3h13.2V55.2h24.4v16.7h13.2V27.6C566.9,20.1,561.2,12,550.1,12z M553.8,44.2h-24.4V30.4c0-6.9,4.9-7.6,7.1-7.6h10.3c2.1,0,7.1,0.7,7.1,7.6V44.2z"></path> <path class="st2" d="M406.1,52.1c8.8-1.5,12.9-9.7,12.9-15.3v-9.3c0-7.5-5.8-15.6-16.8-15.6h-16.7c-11,0-16.8,8.1-16.8,15.6v44.3 h13.2V30.4c0-6.9,4.6-7.6,7.1-7.6h9.9c2.5,0,7.1,0.7,7.1,7.6l0,3.6c0.1,3.5-0.5,8.2-7.5,8l-5.8,0l-0.2,0l-3.2,0v2.6 c0,3.7,0.8,5.7,2.5,8.2l13.1,19.1H419l-14.2-19.6L406.1,52.1z"></path> <path class="st2" d="M488.3,12h-14.9c-11,0-16.8,8.1-16.8,15.6v28.7c0,7.5,5.8,15.6,16.8,15.6h14.9c11,0,16.8-8.1,16.8-15.6v-3.4 h-13.2v0.5c0,6.9-4.9,7.7-7.1,7.7h-8.1c-2.1,0-7.1-0.7-7.1-7.6V30.4c0-6.9,4.9-7.6,7.1-7.6h8.1c2.1,0,7.1,0.9,7.1,7.7V31h13.2 v-3.4C505.1,20.1,499.3,12,488.3,12z"></path> </g> <g> <path class="st2" d="M124.2,88.1h3.3l7,16.4h-3.7l-1.5-3.7h-6.9l-1.5,3.7h-3.7L124.2,88.1z M128,97.7l-2.2-5.3l-2.2,5.3H128z"></path> <path class="st2" d="M135.6,102.2l2.1-2.5c1.5,1.2,3,2,4.9,2c1.5,0,2.4-0.6,2.4-1.5v0c0-0.9-0.6-1.4-3.3-2.1 c-3.3-0.8-5.4-1.7-5.4-5v0c0-3,2.4-4.9,5.7-4.9c2.4,0,4.4,0.7,6.1,2.1l-1.9,2.7c-1.4-1-2.9-1.6-4.2-1.6c-1.4,0-2.1,0.6-2.1,1.4v0 c0,1.1,0.7,1.4,3.5,2.1c3.3,0.9,5.2,2,5.2,4.9v0c0,3.2-2.5,5.1-6,5.1C140.1,104.8,137.6,103.9,135.6,102.2z"></path> <path class="st2" d="M150.4,102.2l2.1-2.5c1.5,1.2,3,2,4.9,2c1.5,0,2.4-0.6,2.4-1.5v0c0-0.9-0.6-1.4-3.3-2.1 c-3.3-0.8-5.4-1.7-5.4-5v0c0-3,2.4-4.9,5.7-4.9c2.4,0,4.4,0.7,6.1,2.1l-1.9,2.7c-1.4-1-2.9-1.6-4.2-1.6s-2.1,0.6-2.1,1.4v0 c0,1.1,0.7,1.4,3.5,2.1c3.3,0.9,5.2,2,5.2,4.9v0c0,3.2-2.5,5.1-6,5.1C154.9,104.8,152.4,103.9,150.4,102.2z"></path> <path class="st2" d="M166.2,97.5v-9.3h3.6v9.2c0,2.7,1.3,4,3.5,4c2.2,0,3.5-1.3,3.5-3.9v-9.3h3.6v9.2c0,4.9-2.8,7.4-7.2,7.4 C168.9,104.8,166.2,102.3,166.2,97.5z"></path> <path class="st2" d="M184.1,88.2h7.5c2.1,0,3.7,0.6,4.8,1.7c0.9,0.9,1.4,2.2,1.4,3.7v0c0,2.6-1.4,4.3-3.5,5.1l4,5.8H194l-3.5-5.2 h-2.8v5.2h-3.6V88.2z M191.3,96.1c1.7,0,2.7-0.9,2.7-2.3v0c0-1.5-1.1-2.3-2.8-2.3h-3.6v4.7H191.3z"></path> <path class="st2" d="M206.6,88.1h3.3l7,16.4h-3.7l-1.5-3.7h-6.9l-1.5,3.7h-3.7L206.6,88.1z M210.3,97.7l-2.2-5.3l-2.2,5.3H210.3z"></path> <path class="st2" d="M219.4,88.2h3.3l7.6,10v-10h3.5v16.3h-3.1l-7.9-10.4v10.4h-3.5V88.2z"></path> <path class="st2" d="M237,96.4L237,96.4c0-4.7,3.5-8.5,8.5-8.5c3.1,0,4.9,1,6.4,2.5l-2.3,2.6c-1.3-1.1-2.5-1.8-4.2-1.8 c-2.7,0-4.7,2.3-4.7,5.1v0c0,2.8,1.9,5.1,4.7,5.1c1.9,0,3-0.7,4.3-1.9l2.3,2.3c-1.7,1.8-3.5,2.9-6.7,2.9 C240.6,104.8,237,101.1,237,96.4z"></path> <path class="st2" d="M255,88.2h12.3v3.2h-8.7v3.3h7.7v3.2h-7.7v3.4h8.9v3.2H255V88.2z"></path> </g> </g> </svg>
