<?xml version="1.0" encoding="UTF-8"?>
<svg xmlns="http://www.w3.org/2000/svg" xmlns:xlink="http://www.w3.org/1999/xlink" version="1.1" id="Calque_1" x="0px" y="0px" viewBox="0 0 500 95.3" style="enable-background:new 0 0 500 95.3;" xml:space="preserve"> <style type="text/css"> .st0{fill:#64BCEB;} .st1{fill:#FFFFFF;} .st2{fill:#232D5B;} </style> <g> <path class="st0" d="M38,75.4c20.3,0,36.8-16.5,36.8-36.8C74.9,18.3,58.4,1.8,38,1.8S1.2,18.3,1.2,38.6C1.2,58.9,17.7,75.4,38,75.4 z"></path> <path class="st1" d="M25.2,23.4h-8.3v6.9h8.2c2.3,0,3.9,1.9,3.9,4.1v1.8c-0.8-0.6-2.4-0.8-3.5-0.8h-6.2v6.5h5.6c3.6,0,4,2.3,4,3.9 V55h7.4V33.8C36.3,26.6,30.9,23.4,25.2,23.4z"></path> <path class="st1" d="M50.8,23.4h8.3v6.9h-8.2c-2.3,0-3.9,1.9-3.9,4.1v1.8c0.8-0.6,2.4-0.8,3.5-0.8h6.2v6.5H51c-3.6,0-4,2.3-4,3.9 V55h-7.3V33.8C39.7,26.6,45.1,23.4,50.8,23.4z"></path> <path class="st2" d="M199.9,12.3h-15c-9.6,0-14.7,7.1-14.7,13.7v38.8h11.6V28.4c0-6.1,4.3-6.7,6.2-6.7h9c1.8,0,6.2,0.6,6.2,6.7 v36.4h11.6V26C214.6,19.4,209.6,12.3,199.9,12.3z"></path> <path class="st2" d="M281.6,29.7v35.2h11.6V42.3h17.5v-9.5h-17.5v-3.2c0-4.8,2.7-7.8,8.2-7.8h14.4v-9.6h-14.4 C289,12.3,281.6,18.4,281.6,29.7z"></path> <path class="st2" d="M104,29.7v35.2h11.6V42.3H133v-9.5h-17.4v-3.2c0-4.8,2.7-7.8,8.2-7.8h14.4v-9.6h-14.4 C111.3,12.3,104,18.4,104,29.7z"></path> <path class="st2" d="M387.4,12.3h-1.5c-4.5,0-6.8,1-6.8,6.6v1.8v44.2h11.5V12.3H387.4z"></path> <path class="st2" d="M155.9,12.3h-1.5c-4.5,0-6.8,1-6.8,6.6v1.8v44.2H159V12.3h-2.6H155.9z"></path> <path class="st2" d="M255.8,12.3h-15c-9.6,0-14.7,7.1-14.7,13.7v38.8h11.6V50.2H259v14.6h11.6V26C270.5,19.4,265.4,12.3,255.8,12.3 z M259,40.5h-21.4V28.4c0-6.1,4.3-6.7,6.2-6.7h9c1.8,0,6.2,0.6,6.2,6.7L259,40.5L259,40.5z"></path> <path class="st2" d="M483.6,12.3h-15c-9.6,0-14.7,7.1-14.7,13.7v38.8h11.6V50.2h21.4v14.6h11.6V26 C498.3,19.4,493.3,12.3,483.6,12.3z M486.8,40.5h-21.4V28.4c0-6.1,4.3-6.7,6.2-6.7h9c1.8,0,6.2,0.6,6.2,6.7L486.8,40.5L486.8,40.5z "></path> <path class="st2" d="M357.3,47.5c7.7-1.3,11.3-8.5,11.3-13.4v-8.2c0-6.6-5.1-13.7-14.7-13.7h-14.6c-9.6,0-14.7,7.1-14.7,13.7v38.8 h11.6V28.4c0-6.1,4-6.7,6.2-6.7h8.7c2.2,0,6.2,0.6,6.2,6.7v3.2c0.1,3.1-0.4,7.2-6.6,7h-5.1h-0.2h-2.8v2.3c0,3.2,0.7,5,2.2,7.2 l11.5,16.7h12.4l-12.5-17.2L357.3,47.5z"></path> <path class="st2" d="M429.4,12.3h-13.1c-9.6,0-14.7,7.1-14.7,13.7v25.2c0,6.6,5.1,13.7,14.7,13.7h13.1c9.6,0,14.7-7.1,14.7-13.7v-3 h-11.6v0.4c0,6.1-4.3,6.8-6.2,6.8h-7.1c-1.8,0-6.2-0.6-6.2-6.7V28.4c0-6.1,4.3-6.7,6.2-6.7h7.1c1.8,0,6.2,0.8,6.2,6.8V29h11.6v-3 C444.1,19.4,439,12.3,429.4,12.3z"></path> <path class="st2" d="M110.1,79h2.9l6.1,14.4h-3.2l-1.3-3.2h-6.1l-1.3,3.2H104L110.1,79z M113.4,87.4l-1.9-4.6l-1.9,4.6H113.4z"></path> <path class="st2" d="M120.6,91.4l1.8-2.2c1.3,1.1,2.6,1.8,4.3,1.8c1.3,0,2.1-0.5,2.1-1.3c0-0.8-0.5-1.2-2.9-1.8 c-2.9-0.7-4.7-1.5-4.7-4.4c0-2.6,2.1-4.3,5-4.3c2.1,0,3.9,0.6,5.3,1.8l-1.7,2.4c-1.2-0.9-2.5-1.4-3.7-1.4c-1.2,0-1.8,0.5-1.8,1.2 c0,1,0.6,1.2,3.1,1.8c2.9,0.8,4.6,1.8,4.6,4.3c0,2.8-2.2,4.5-5.3,4.5C124.5,93.7,122.3,92.9,120.6,91.4z"></path> <path class="st2" d="M135.3,91.4l1.8-2.2c1.3,1.1,2.6,1.8,4.3,1.8c1.3,0,2.1-0.5,2.1-1.3c0-0.8-0.5-1.2-2.9-1.8 c-2.9-0.7-4.7-1.5-4.7-4.4c0-2.6,2.1-4.3,5-4.3c2.1,0,3.9,0.6,5.3,1.8l-1.7,2.4c-1.2-0.9-2.5-1.4-3.7-1.4c-1.1,0-1.8,0.5-1.8,1.2 c0,1,0.6,1.2,3.1,1.8c2.9,0.8,4.6,1.8,4.6,4.3c0,2.8-2.2,4.5-5.3,4.5C139.3,93.7,137.1,92.9,135.3,91.4z"></path> <path class="st2" d="M149.5,87.3v-8.2h3.2v8.1c0,2.4,1.1,3.5,3.1,3.5c1.9,0,3.1-1.1,3.1-3.4v-8.2h3.2v8.1c0,4.3-2.5,6.5-6.3,6.5 C151.9,93.7,149.5,91.5,149.5,87.3z"></path> <path class="st2" d="M164.3,79.1h6.6c1.8,0,3.2,0.5,4.2,1.5c0.8,0.8,1.2,1.9,1.2,3.2c0,2.3-1.2,3.8-3.1,4.5l3.5,5.1h-3.8l-3.1-4.6 h-2.5v4.6h-3.2V79.1z M170.6,86c1.5,0,2.4-0.8,2.4-2c0-1.3-1-2-2.5-2h-3.2v4.1L170.6,86L170.6,86z"></path> <path class="st2" d="M183.8,79h2.9l6.1,14.4h-3.2l-1.3-3.2h-6.1l-1.3,3.2h-3.2L183.8,79z M187,87.4l-1.9-4.6l-1.9,4.6H187z"></path> <path class="st2" d="M193.7,79.1h2.9l6.7,8.8v-8.8h3.1v14.3h-2.7l-6.9-9.1v9.1h-3.1L193.7,79.1L193.7,79.1z"></path> <path class="st2" d="M208.1,86.3c0-4.1,3.1-7.5,7.5-7.5c2.7,0,4.3,0.9,5.6,2.2l-2,2.3c-1.1-1-2.2-1.6-3.7-1.6c-2.4,0-4.1,2-4.1,4.5 c0,2.5,1.7,4.5,4.1,4.5c1.7,0,2.6-0.6,3.8-1.7l2,2c-1.5,1.6-3.1,2.5-5.9,2.5C211.3,93.7,208.1,90.4,208.1,86.3z"></path> <path class="st2" d="M223.9,79.1h10.8v2.8h-7.6v2.9h6.8v2.8h-6.8v3h7.8v2.8h-11V79.1z"></path> <path class="st2" d="M237.4,91.1l1.8-2.2c1.3,1.1,2.6,1.8,4.3,1.8c1.3,0,2.1-0.5,2.1-1.3c0-0.8-0.5-1.2-2.9-1.8 c-2.9-0.7-4.7-1.5-4.7-4.4c0-2.6,2.1-4.3,5-4.3c2.1,0,3.9,0.6,5.3,1.8l-1.7,2.4c-1.2-0.9-2.5-1.4-3.7-1.4c-1.1,0-1.8,0.5-1.8,1.2 c0,1,0.6,1.2,3.1,1.8c2.9,0.8,4.6,1.8,4.6,4.3c0,2.8-2.2,4.5-5.3,4.5C241.4,93.4,239.2,92.6,237.4,91.1z"></path> </g> </svg>
