<?xml version="1.0" encoding="utf-8"?>
<!-- Generator: Adobe Illustrator 27.5.0, SVG Export Plug-In . SVG Version: 6.00 Build 0)  -->
<svg version="1.1" xmlns="http://www.w3.org/2000/svg" xmlns:xlink="http://www.w3.org/1999/xlink" x="0px" y="0px"
	 viewBox="0 0 500 500" style="enable-background:new 0 0 500 500;" xml:space="preserve">
<g id="BACKGROUND">
	<rect style="fill:#F8EABC;" width="500" height="500"/>
</g>
<g id="OBJECTS">
	<path style="fill:#FDC875;" d="M188.647,136.273c-0.996-5.631-5.903-9.911-11.82-9.911c-0.357,0-0.709,0.023-1.058,0.053
		c0.673-1.888,1.058-3.913,1.058-6.032c0-9.938-8.056-17.993-17.993-17.993c-6.223,0-11.707,3.16-14.938,7.962
		c-3.481-1.819-7.438-2.853-11.638-2.853c-13.904,0-25.175,11.271-25.175,25.175c0,1.222,0.092,2.423,0.26,3.599H188.647z"/>
	<path style="fill:#FDC875;" d="M422.706,225.76c-1.017-4.891-5.333-8.573-10.527-8.573c-0.32,0-0.635,0.021-0.949,0.048
		c0.603-1.693,0.949-3.508,0.949-5.408c0-8.909-7.222-16.131-16.131-16.131c-5.579,0-10.495,2.833-13.392,7.138
		c-3.121-1.631-6.668-2.558-10.433-2.558c-9.048,0-16.848,5.326-20.447,13.013c-2.019-1.07-4.319-1.682-6.763-1.682
		c-7.884,0-14.282,6.31-14.45,14.153H422.706z"/>
	<path style="fill:#FFFFFF;" d="M84.477,228.452c0.951-5.389,4.983-9.444,9.836-9.444c0.299,0,0.594,0.023,0.886,0.053
		c-0.564-1.865-0.886-3.864-0.886-5.958c0-9.815,6.748-17.772,15.073-17.772c5.213,0,9.807,3.121,12.514,7.864
		c2.916-1.796,6.23-2.818,9.749-2.818c8.454,0,15.743,5.868,19.106,14.336c1.887-1.179,4.035-1.854,6.32-1.854
		c7.366,0,13.345,6.951,13.502,15.592H84.477z"/>
	<path style="fill:#FDC875;" d="M212.851,256.909c-4.735-8.202-13.023-12.303-21.31-12.303v67.44
		c5.504-1.244,11.128-2.334,16.88-3.226c0.605-0.094,1.216-0.179,1.824-0.268l15.376-29.523L212.851,256.909z"/>
	<path style="fill:#FDC875;" d="M390.456,351.332l-81.979-141.992c-4.502-7.798-12.215-11.881-20.086-12.265v111.268
		C330.492,314.342,366.647,329.987,390.456,351.332z"/>
	<path style="fill:#FDA875;" d="M265.857,209.339l-40.235,69.689l-15.376,29.523c9.969-1.474,20.271-2.413,30.833-2.75
		c2.956-0.094,5.927-0.156,8.921-0.156c13.203,0,26.049,0.938,38.39,2.697V197.074C279.704,196.65,270.826,200.733,265.857,209.339z
		"/>
	<path style="fill:#FDA875;" d="M170.232,256.909l-49.239,85.284c18.815-13.46,43.031-23.927,70.548-30.147v-67.44
		C183.255,244.606,174.968,248.707,170.232,256.909z"/>
	<polygon style="fill:#2F455F;" points="294.732,313.585 205.268,313.585 219.694,209.687 279.344,209.687 	"/>
	<rect x="219.694" y="203.084" style="fill:#5A1A5A;" width="59.65" height="6.602"/>
	<g>
		<path style="fill:#FB687F;" d="M235.056,243.262h-2.645c-1.622,0-2.937-1.315-2.937-2.937v-2.645c0-1.622,1.315-2.937,2.937-2.937
			h2.645c1.622,0,2.937,1.315,2.937,2.937v2.645C237.993,241.947,236.678,243.262,235.056,243.262z"/>
		<path style="fill:#F8EABC;" d="M250.841,243.262h-2.645c-1.622,0-2.937-1.315-2.937-2.937v-2.645c0-1.622,1.315-2.937,2.937-2.937
			h2.645c1.622,0,2.937,1.315,2.937,2.937v2.645C253.778,241.947,252.463,243.262,250.841,243.262z"/>
		<path style="fill:#FB687F;" d="M266.627,243.262h-2.645c-1.622,0-2.937-1.315-2.937-2.937v-2.645c0-1.622,1.315-2.937,2.937-2.937
			h2.645c1.622,0,2.937,1.315,2.937,2.937v2.645C269.563,241.947,268.249,243.262,266.627,243.262z"/>
	</g>
	<g>
		<polygon style="fill:#5A1A5A;" points="250,158.092 254.76,163.672 245.24,163.672 		"/>
		<polygon style="fill:#5A1A5A;" points="258.41,167.952 262.06,172.232 237.94,172.232 241.59,167.952 		"/>
		<polygon style="fill:#5A1A5A;" points="265.72,176.512 269.37,180.792 230.63,180.792 234.28,176.512 		"/>
		<polygon style="fill:#FB687F;" points="283.98,197.922 288.39,203.082 211.61,203.082 216.02,197.922 		"/>
		<polygon style="fill:#5A1A5A;" points="280.33,193.642 283.98,197.922 216.02,197.922 219.67,193.642 		"/>
		<polygon style="fill:#FB687F;" points="276.68,189.362 280.33,193.642 219.67,193.642 223.32,189.362 		"/>
		<polygon style="fill:#5A1A5A;" points="273.03,185.072 276.68,189.362 223.32,189.362 226.97,185.072 226.98,185.082 
			273.02,185.082 		"/>
		<polygon style="fill:#FB687F;" points="273.03,185.072 273.02,185.082 226.98,185.082 226.97,185.072 230.63,180.792 
			269.37,180.792 		"/>
		<polygon style="fill:#FB687F;" points="265.72,176.512 234.28,176.512 237.94,172.232 262.06,172.232 		"/>
		<polygon style="fill:#FB687F;" points="254.76,163.672 258.41,167.952 241.59,167.952 245.24,163.672 		"/>
	</g>
	<g>
		<path style="fill:#FFFFFF;" d="M191.542,136.535H84.477c-1.104,0-2-0.896-2-2c0-1.105,0.896-2,2-2h107.065c1.104,0,2,0.895,2,2
			C193.542,135.64,192.646,136.535,191.542,136.535z"/>
	</g>
	<g>
		<path style="fill:#FFFFFF;" d="M321.627,138.576h-17.521c-1.104,0-2-0.895-2-2c0-1.104,0.896-2,2-2h17.521c1.104,0,2,0.896,2,2
			C323.627,137.68,322.731,138.576,321.627,138.576z"/>
	</g>
	<g>
		<path style="fill:#FFFFFF;" d="M345.051,138.576h-7.128c-1.104,0-2-0.895-2-2c0-1.104,0.896-2,2-2h7.128c1.104,0,2,0.896,2,2
			C347.051,137.68,346.155,138.576,345.051,138.576z"/>
	</g>
	<g>
		<path style="fill:#FB687F;" d="M308.098,220.299c-0.246,0-0.497-0.046-0.74-0.143c-1.025-0.409-1.525-1.573-1.116-2.599
			c2.868-7.189,4.322-14.796,4.322-22.609c0-9.586-2.158-18.761-6.414-27.269c-0.494-0.988-0.094-2.189,0.895-2.683
			c0.99-0.495,2.19-0.093,2.684,0.894c4.536,9.068,6.836,18.845,6.836,29.058c0,8.323-1.55,16.428-4.607,24.091
			C309.644,219.822,308.893,220.299,308.098,220.299z"/>
	</g>
	<path style="fill:#FFFFFF;" d="M201.457,134.273c0,1.272-1.031,2.303-2.303,2.303c-1.272,0-2.303-1.031-2.303-2.303
		c0-1.272,1.031-2.303,2.303-2.303C200.426,131.969,201.457,133.001,201.457,134.273z"/>
	<path style="fill:#5A1A5A;" d="M381.938,148.879c0,1.272-1.031,2.303-2.303,2.303c-1.272,0-2.303-1.031-2.303-2.303
		c0-1.272,1.031-2.303,2.303-2.303C380.907,146.576,381.938,147.607,381.938,148.879z"/>
	<path style="fill:#FB687F;" d="M147.342,182.168c0,1.272-1.031,2.303-2.303,2.303c-1.272,0-2.303-1.031-2.303-2.303
		c0-1.272,1.031-2.303,2.303-2.303C146.31,179.865,147.342,180.896,147.342,182.168z"/>
	<g>
		<path style="fill:#F8EABC;" d="M226.97,247.453h-7.719c-1.105,0-2-0.896-2-2c0-1.105,0.895-2,2-2h7.719c1.105,0,2,0.895,2,2
			C228.97,246.557,228.075,247.453,226.97,247.453z"/>
	</g>
	<g>
		<path style="fill:#FFFFFF;" d="M194.369,247.453h-25.443c-1.105,0-2-0.896-2-2c0-1.105,0.895-2,2-2h25.443c1.104,0,2,0.895,2,2
			C196.369,246.557,195.473,247.453,194.369,247.453z"/>
	</g>
	<g>
		<path style="fill:#FB687F;" d="M157.022,298.984l-23.614,7.182l-4.086-13.434l1.699-74.667l15.272-4.645l20.642,67.873l7.069-2.15
			l4.085,13.433l-7.069,2.15l6.881,22.624l-13.999,4.258L157.022,298.984z M142.332,288.776l10.605-3.226l-9.891-32.522
			l-0.946-3.111l-0.849,0.257l0.098,3.37L142.332,288.776z"/>
	</g>
	<g>
		<path style="fill:#5A1A5A;" d="M332.632,295.845l-23.38-7.908l4.499-13.301l44.851-59.72l15.122,5.115l-22.731,67.202l7,2.367
			l-4.499,13.3l-7-2.367l-7.576,22.401l-13.861-4.687L332.632,295.845z M326.631,278.992l10.501,3.551l10.891-32.2l1.042-3.081
			l-0.84-0.285l-1.882,2.797L326.631,278.992z"/>
	</g>
	<g>
		<path style="fill:#5A1A5A;" d="M193.476,221.527c-0.692,0-1.365-0.36-1.735-1.003c-5.646-9.811-8.631-21.014-8.631-32.399
			c0-6.594,0.984-13.101,2.925-19.341c0.328-1.055,1.45-1.643,2.503-1.316c1.055,0.328,1.644,1.449,1.316,2.503
			c-1.821,5.855-2.744,11.963-2.744,18.154c0,10.686,2.8,21.199,8.098,30.404c0.551,0.957,0.222,2.18-0.736,2.731
			C194.157,221.441,193.814,221.527,193.476,221.527z"/>
	</g>
	<g>
		<path style="fill:#FB687F;" d="M289.789,137.996c-0.433,0-0.867-0.139-1.233-0.427c-11.806-9.263-25.996-14.159-41.038-14.159
			c-10.786,0-21.075,2.5-30.583,7.429c-0.98,0.508-2.187,0.126-2.696-0.855c-0.509-0.98-0.126-2.187,0.855-2.696
			c9.94-5.154,21.152-7.879,32.424-7.879c15.946,0,30.99,5.191,43.506,15.012c0.869,0.682,1.021,1.939,0.339,2.808
			C290.969,137.733,290.382,137.996,289.789,137.996z"/>
	</g>
	<rect x="273.874" y="283.641" style="fill:#FB687F;" width="6.455" height="3.153"/>
	<rect x="277.571" y="289.376" style="fill:#FDC875;" width="6.455" height="3.153"/>
	<rect x="216.329" y="265.166" style="fill:#FDC875;" width="6.455" height="3.153"/>
	<rect x="222.784" y="268.32" style="fill:#F8EABC;" width="6.455" height="3.153"/>
	<g>
		<path style="fill:#FFFFFF;" d="M147.865,146.444h-26.871c-1.104,0-2-0.896-2-2c0-1.104,0.896-2,2-2h26.871c1.105,0,2,0.896,2,2
			C149.865,145.548,148.97,146.444,147.865,146.444z"/>
	</g>
	<g>
		<path style="fill:#5A1A5A;" d="M362.619,150.879h-44.44c-1.104,0-2-0.895-2-2c0-1.104,0.896-2,2-2h44.44c1.104,0,2,0.896,2,2
			C364.619,149.984,363.724,150.879,362.619,150.879z"/>
	</g>
	<g>
		<path style="fill:#FB687F;" d="M171.513,184.169h-17.807c-1.104,0-2-0.896-2-2c0-1.105,0.896-2,2-2h17.807c1.104,0,2,0.895,2,2
			C173.513,183.273,172.618,184.169,171.513,184.169z"/>
	</g>
	<text transform="matrix(1 0 0 1 193.8162 377.7488)" style="fill:#2F455F; font-family:'Norwester-Regular'; font-size:44px;">ERROR</text>
	<text transform="matrix(1 0 0 1 195.6578 395.3498)" style="fill:#5A1A5A; font-family:'Norwester-Regular'; font-size:12px;">please return later</text>
	<path style="fill:#FFFFFF;" d="M343.959,290.487c0.606-3.422,3.587-6.023,7.183-6.023c0.217,0,0.431,0.014,0.643,0.032
		c-0.409-1.147-0.643-2.378-0.643-3.665c0-6.039,4.896-10.935,10.935-10.935c3.782,0,7.114,1.92,9.078,4.839
		c2.116-1.105,4.52-1.734,7.072-1.734c8.449,0,15.299,6.849,15.299,15.299c0,0.743-0.056,1.473-0.158,2.187H343.959z"/>
	<path style="fill:#FFFFFF;" d="M387.402,107.269c-0.605-3.422-3.587-6.023-7.183-6.023c-0.217,0-0.431,0.014-0.643,0.032
		c0.409-1.147,0.643-2.378,0.643-3.665c0-6.039-4.896-10.935-10.935-10.935c-3.782,0-7.114,1.92-9.078,4.839
		c-2.116-1.105-4.52-1.734-7.072-1.734c-8.449,0-15.299,6.85-15.299,15.299c0,0.743,0.056,1.473,0.158,2.187H387.402z"/>
	<circle style="fill:#FB687F;" cx="345.051" cy="93.327" r="18.751"/>
	<path style="fill:#5A1A5A;" d="M267.679,280.651v32.934h-35.357v-32.934c0-9.764,7.915-17.679,17.679-17.679l0,0
		C259.764,262.973,267.679,270.888,267.679,280.651z"/>
	<path style="fill:#FB687F;" d="M250,268.32L250,268.32c-6.956,0-12.594,5.639-12.594,12.594v32.672h25.188v-32.672
		C262.594,273.958,256.955,268.32,250,268.32z"/>
	<path style="fill:#58AD6F;" d="M250,324.925c52.811,0,102.044,10.733,143.526,29.252C363.159,324.98,310.225,305.645,250,305.645
		s-113.159,19.335-143.526,48.532C147.955,335.658,197.189,324.925,250,324.925z"/>
	<path style="fill:#2F455F;" d="M322.523,322.366c-4.117,0.383-7.766-2.645-8.148-6.762c-0.383-4.117,2.645-7.766,6.762-8.148
		c4.118-0.383,7.766,2.645,8.148,6.762C329.668,318.336,326.64,321.983,322.523,322.366z"/>
	<g>
		<path style="fill:#F8EABC;" d="M322.857,318.785c-0.211,0-0.425-0.019-0.64-0.057c-0.786-0.14-1.472-0.577-1.929-1.232
			c-0.456-0.654-0.631-1.448-0.491-2.233c0.116-0.649,0.477-1.214,1.017-1.591c0.541-0.377,1.198-0.521,1.844-0.405
			c0.538,0.096,1.007,0.395,1.32,0.844c0.314,0.448,0.433,0.992,0.337,1.53c-0.08,0.45-0.33,0.843-0.706,1.105
			c-0.375,0.261-0.826,0.364-1.28,0.281c-0.204-0.036-0.34-0.231-0.304-0.435c0.036-0.203,0.236-0.337,0.435-0.304
			c0.252,0.043,0.508-0.011,0.721-0.158c0.211-0.147,0.352-0.368,0.396-0.621c0.061-0.342-0.015-0.687-0.214-0.971
			c-0.198-0.284-0.495-0.474-0.836-0.534c-0.449-0.081-0.906,0.02-1.283,0.282c-0.376,0.262-0.627,0.655-0.708,1.106
			c-0.105,0.589,0.026,1.184,0.368,1.674c0.343,0.49,0.855,0.818,1.444,0.923c1.568,0.278,3.075-0.771,3.354-2.341
			c0.174-0.976-0.043-1.96-0.61-2.772c-0.566-0.814-1.416-1.355-2.392-1.529c-1.243-0.223-2.5,0.054-3.536,0.778
			c-1.036,0.723-1.729,1.806-1.95,3.05c-0.036,0.203-0.231,0.343-0.435,0.304c-0.204-0.036-0.34-0.23-0.304-0.435
			c0.257-1.441,1.059-2.697,2.259-3.534c1.2-0.838,2.653-1.158,4.097-0.901c1.173,0.208,2.194,0.861,2.876,1.838
			c0.682,0.977,0.942,2.161,0.733,3.333C326.128,317.543,324.588,318.785,322.857,318.785z"/>
	</g>
	
		<ellipse transform="matrix(0.6596 -0.7517 0.7517 0.6596 -203.8312 208.2778)" style="fill:#5A1A5A;" cx="128.007" cy="329.153" rx="9.266" ry="9.266"/>
	<g>
		<path style="fill:#F8EABC;" d="M127.456,336.411c-0.044,0-0.089-0.006-0.133-0.018c-1.913-0.527-3.506-1.768-4.487-3.492
			c-0.98-1.726-1.23-3.729-0.703-5.643c0.885-3.213,4.219-5.102,7.431-4.223c1.271,0.351,2.329,1.175,2.98,2.32
			c0.651,1.146,0.817,2.478,0.467,3.748c-0.287,1.042-0.962,1.91-1.903,2.444c-0.939,0.535-2.031,0.668-3.074,0.384
			c-0.86-0.237-1.576-0.794-2.016-1.569c-0.44-0.775-0.552-1.676-0.315-2.536c0.405-1.473,1.931-2.341,3.407-1.935
			c0.596,0.165,1.093,0.552,1.399,1.09c0.306,0.538,0.383,1.162,0.219,1.759c-0.073,0.267-0.351,0.42-0.615,0.35
			c-0.266-0.074-0.422-0.35-0.349-0.615c0.093-0.339,0.049-0.693-0.124-0.999c-0.174-0.307-0.456-0.526-0.795-0.619
			c-0.455-0.125-0.934-0.066-1.345,0.167c-0.411,0.233-0.707,0.613-0.833,1.069c-0.166,0.603-0.087,1.233,0.221,1.776
			c0.309,0.543,0.81,0.934,1.412,1.099c0.787,0.218,1.607,0.114,2.315-0.288c0.707-0.402,1.216-1.056,1.433-1.841
			c0.576-2.092-0.657-4.262-2.748-4.838c-2.685-0.739-5.463,0.843-6.202,3.523c-0.456,1.655-0.24,3.39,0.608,4.883
			c0.849,1.493,2.228,2.566,3.883,3.022c0.266,0.073,0.422,0.349,0.349,0.615C127.876,336.266,127.675,336.411,127.456,336.411z"/>
	</g>
	<g>
		<g id="XMLID_1_">
			<g>
				<polygon style="fill:#FDC875;" points="274.1,179.592 271.19,182.172 266.75,177.722 269.49,174.982 				"/>
				<polygon style="fill:#FDC875;" points="268.06,166.792 272.87,171.602 269.49,174.982 264.88,170.372 				"/>
				<polygon style="fill:#FDC875;" points="276.25,168.212 281.26,173.222 277.68,176.402 272.87,171.602 				"/>
				<polygon style="fill:#FDC875;" points="279.64,164.832 276.25,168.212 271.25,163.202 274.43,159.622 				"/>
				<polygon style="fill:#FDC875;" points="280.8,152.462 286.4,158.062 283.02,161.452 277.61,156.042 				"/>
				<polygon style="fill:#FDC875;" points="288.42,166.852 284.84,170.032 279.64,164.832 283.02,161.452 				"/>
				<polygon style="fill:#FDC875;" points="295.59,160.482 292.01,163.662 286.4,158.062 289.79,154.682 				"/>
				<polygon style="fill:#FDC875;" points="293.17,151.292 289.79,154.682 283.98,148.872 287.17,145.292 				"/>
				<polygon style="fill:#FDC875;" points="302.19,154.622 299.18,157.302 299.17,157.292 293.17,151.292 296.01,148.452 				"/>
				<polygon style="fill:#FDA875;" points="269.49,174.982 266.75,177.722 262.3,173.272 264.88,170.372 				"/>
				<polygon style="fill:#FDA875;" points="277.68,176.402 274.1,179.592 269.49,174.982 272.87,171.602 				"/>
				<polygon style="fill:#FDA875;" points="271.25,163.202 276.25,168.212 272.87,171.602 268.06,166.792 				"/>
				<polygon style="fill:#FDA875;" points="284.84,170.032 281.26,173.222 276.25,168.212 279.64,164.832 				"/>
				<polygon style="fill:#FDA875;" points="283.02,161.452 279.64,164.832 274.43,159.622 277.61,156.042 				"/>
				<polygon style="fill:#FDA875;" points="292.01,163.662 288.42,166.852 283.02,161.452 286.4,158.062 				"/>
				<polygon style="fill:#FDA875;" points="289.79,154.682 286.4,158.062 280.8,152.462 283.98,148.872 				"/>
				<polygon style="fill:#FDA875;" points="299.18,157.302 295.59,160.482 289.79,154.682 293.17,151.292 299.17,157.292 				"/>
				<polygon style="fill:#FDA875;" points="289.84,142.282 296.01,148.452 293.17,151.292 287.17,145.292 				"/>
			</g>
			<g>
				<g>
					<path style="fill:#58AD6F;" d="M253.14,192.331c-0.256,0-0.512-0.098-0.707-0.293c-0.391-0.391-0.391-1.023,0-1.414
						l42.87-42.88c0.391-0.391,1.023-0.391,1.414,0c0.391,0.391,0.391,1.023,0,1.414l-42.87,42.88
						C253.651,192.234,253.395,192.331,253.14,192.331z"/>
				</g>
				<g>
					<path style="fill:#58AD6F;" d="M271.19,183.172c-0.257,0-0.513-0.099-0.708-0.294l-8.89-8.9
						c-0.375-0.374-0.393-0.976-0.04-1.372l27.539-30.989c0.183-0.206,0.442-0.328,0.718-0.336c0.309-0.02,0.543,0.098,0.737,0.293
						l12.35,12.339c0.195,0.194,0.302,0.461,0.294,0.736c-0.008,0.275-0.129,0.535-0.335,0.718l-28.091,24.97
						c0,0.001-0.001,0.001-0.002,0.001l-2.909,2.58C271.664,183.088,271.427,183.172,271.19,183.172z M263.674,173.231l7.559,7.567
						l29.501-26.218l-10.85-10.84L263.674,173.231z M274.1,179.592h0.01H274.1z"/>
				</g>
				<g>
					<path style="fill:#58AD6F;" d="M299.17,158.292c-0.256,0-0.512-0.098-0.707-0.293l-12-12c-0.391-0.391-0.391-1.023,0-1.414
						c0.391-0.391,1.023-0.391,1.414,0l12,12c0.391,0.391,0.391,1.023,0,1.414C299.682,158.194,299.426,158.292,299.17,158.292z"/>
				</g>
				<g>
					<path style="fill:#58AD6F;" d="M295.59,161.481c-0.256,0-0.512-0.098-0.707-0.293l-11.609-11.61
						c-0.391-0.391-0.391-1.023,0-1.414c0.391-0.391,1.023-0.391,1.414,0l11.609,11.61c0.391,0.391,0.391,1.023,0,1.414
						C296.102,161.384,295.846,161.481,295.59,161.481z"/>
				</g>
				<g>
					<path style="fill:#58AD6F;" d="M292.01,164.662c-0.256,0-0.512-0.097-0.706-0.293l-11.211-11.2
						c-0.391-0.39-0.391-1.023,0-1.414c0.391-0.391,1.023-0.391,1.414,0l11.209,11.199c0.392,0.39,0.392,1.023,0.002,1.414
						C292.522,164.564,292.266,164.662,292.01,164.662z"/>
				</g>
				<g>
					<path style="fill:#58AD6F;" d="M288.42,167.852c-0.256,0-0.512-0.098-0.707-0.293l-10.81-10.81
						c-0.391-0.391-0.391-1.024,0-1.414c0.391-0.391,1.023-0.391,1.414,0l10.81,10.81c0.391,0.391,0.391,1.023,0,1.414
						C288.932,167.754,288.676,167.852,288.42,167.852z"/>
				</g>
				<g>
					<path style="fill:#58AD6F;" d="M284.84,171.032c-0.256,0-0.512-0.098-0.707-0.293l-10.41-10.41
						c-0.391-0.391-0.391-1.023,0-1.414c0.391-0.391,1.023-0.391,1.414,0l10.41,10.41c0.391,0.391,0.391,1.023,0,1.414
						C285.352,170.934,285.096,171.032,284.84,171.032z"/>
				</g>
				<g>
					<path style="fill:#58AD6F;" d="M281.26,174.222c-0.256,0-0.512-0.098-0.707-0.293l-10.011-10.02
						c-0.39-0.391-0.39-1.024,0.002-1.415c0.391-0.39,1.023-0.39,1.414,0.001l10.009,10.02c0.391,0.391,0.391,1.023,0,1.414
						C281.771,174.124,281.516,174.222,281.26,174.222z"/>
				</g>
				<g>
					<path style="fill:#58AD6F;" d="M277.68,177.402c-0.256,0-0.511-0.097-0.706-0.292l-9.621-9.611
						c-0.391-0.391-0.391-1.023,0-1.414c0.391-0.391,1.024-0.391,1.414,0l9.619,9.609c0.392,0.39,0.392,1.023,0.002,1.415
						C278.192,177.304,277.935,177.402,277.68,177.402z"/>
				</g>
				<g>
					<path style="fill:#58AD6F;" d="M274.1,180.592c-0.256,0-0.512-0.098-0.707-0.293l-9.22-9.22c-0.391-0.391-0.391-1.023,0-1.414
						c0.391-0.391,1.023-0.391,1.414,0l9.22,9.22c0.391,0.391,0.391,1.024,0,1.414C274.611,180.494,274.355,180.592,274.1,180.592z"
						/>
				</g>
			</g>
		</g>
	</g>
	<g>
		<path style="fill:#FFFFFF;" d="M249.519,247.453c-1.104,0-2-0.896-2-2c0-1.105,0.896-2,2-2c26.746,0,48.504-21.759,48.504-48.504
			s-21.759-48.504-48.504-48.504h-80.74c-1.105,0-2-0.896-2-2c0-1.104,0.895-2,2-2h80.74c28.951,0,52.504,23.553,52.504,52.504
			C302.023,223.899,278.47,247.453,249.519,247.453z"/>
	</g>
	<g>
		<g id="XMLID_2_">
			<g>
				<polygon style="fill:#FDC875;" points="234.162,219.529 236.742,216.619 232.292,212.179 229.552,214.919 				"/>
				<polygon style="fill:#FDC875;" points="221.362,213.489 226.172,218.299 229.552,214.919 224.942,210.309 				"/>
				<polygon style="fill:#FDC875;" points="222.782,221.679 227.792,226.689 230.972,223.109 226.172,218.299 				"/>
				<polygon style="fill:#FDC875;" points="219.402,225.069 222.782,221.679 217.772,216.679 214.192,219.859 				"/>
				<polygon style="fill:#FDC875;" points="207.032,226.229 212.632,231.829 216.022,228.449 210.612,223.039 				"/>
				<polygon style="fill:#FDC875;" points="221.422,233.849 224.602,230.269 219.402,225.069 216.022,228.449 				"/>
				<polygon style="fill:#FDC875;" points="215.052,241.019 218.232,237.439 212.632,231.829 209.252,235.219 				"/>
				<polygon style="fill:#FDC875;" points="205.862,238.599 209.252,235.219 203.442,229.409 199.862,232.599 				"/>
				<polygon style="fill:#FDC875;" points="209.192,247.619 211.872,244.609 211.862,244.599 205.862,238.599 203.022,241.439 				
					"/>
				<polygon style="fill:#FDA875;" points="229.552,214.919 232.292,212.179 227.842,207.729 224.942,210.309 				"/>
				<polygon style="fill:#FDA875;" points="230.972,223.109 234.162,219.529 229.552,214.919 226.172,218.299 				"/>
				<polygon style="fill:#FDA875;" points="217.772,216.679 222.782,221.679 226.172,218.299 221.362,213.489 				"/>
				<polygon style="fill:#FDA875;" points="224.602,230.269 227.792,226.689 222.782,221.679 219.402,225.069 				"/>
				<polygon style="fill:#FDA875;" points="216.022,228.449 219.402,225.069 214.192,219.859 210.612,223.039 				"/>
				<polygon style="fill:#FDA875;" points="218.232,237.439 221.422,233.849 216.022,228.449 212.632,231.829 				"/>
				<polygon style="fill:#FDA875;" points="209.252,235.219 212.632,231.829 207.032,226.229 203.442,229.409 				"/>
				<polygon style="fill:#FDA875;" points="211.872,244.609 215.052,241.019 209.252,235.219 205.862,238.599 211.862,244.599 				
					"/>
				<polygon style="fill:#FDA875;" points="196.852,235.269 203.022,241.439 205.862,238.599 199.862,232.599 				"/>
			</g>
			<g>
				<g>
					<path style="fill:#58AD6F;" d="M203.022,242.439c-0.256,0-0.512-0.098-0.707-0.293c-0.391-0.391-0.391-1.023,0-1.414
						l42.88-42.87c0.391-0.391,1.023-0.391,1.414,0c0.391,0.391,0.391,1.023,0,1.414l-42.88,42.87
						C203.534,242.341,203.278,242.439,203.022,242.439z"/>
				</g>
				<g>
					<path style="fill:#58AD6F;" d="M209.192,248.619c-0.265,0-0.52-0.105-0.708-0.293l-12.339-12.35
						c-0.195-0.195-0.301-0.462-0.292-0.737c0.008-0.275,0.13-0.536,0.336-0.718l30.989-27.539c0.395-0.352,0.996-0.335,1.372,0.04
						l8.899,8.889c0.375,0.374,0.394,0.975,0.042,1.372l-2.58,2.91c0,0.001-0.001,0.001-0.001,0.001l-24.97,28.09
						c-0.183,0.206-0.443,0.327-0.718,0.335C209.211,248.619,209.202,248.619,209.192,248.619z M198.31,235.313l10.84,10.85
						l26.218-29.501l-7.567-7.558L198.31,235.313z M234.163,219.529h0.01H234.163z"/>
				</g>
				<g>
					<path style="fill:#58AD6F;" d="M211.862,245.599c-0.256,0-0.512-0.098-0.707-0.293l-12-12c-0.391-0.391-0.391-1.023,0-1.414
						c0.391-0.391,1.023-0.391,1.414,0l12,12c0.391,0.391,0.391,1.023,0,1.414C212.374,245.501,212.118,245.599,211.862,245.599z"/>
				</g>
				<g>
					<path style="fill:#58AD6F;" d="M215.053,242.019c-0.256,0-0.512-0.098-0.707-0.293l-11.61-11.61
						c-0.391-0.391-0.391-1.023,0-1.414c0.391-0.391,1.023-0.391,1.414,0l11.61,11.61c0.391,0.391,0.391,1.023,0,1.414
						C215.564,241.921,215.309,242.019,215.053,242.019z"/>
				</g>
				<g>
					<path style="fill:#58AD6F;" d="M218.232,238.439c-0.256,0-0.512-0.098-0.708-0.294l-11.199-11.209
						c-0.391-0.391-0.391-1.023,0-1.414c0.391-0.391,1.023-0.391,1.414,0l11.2,11.21c0.391,0.391,0.39,1.024-0.001,1.414
						C218.744,238.341,218.488,238.439,218.232,238.439z"/>
				</g>
				<g>
					<path style="fill:#58AD6F;" d="M221.422,234.849c-0.256,0-0.512-0.098-0.707-0.293l-10.81-10.81
						c-0.391-0.391-0.391-1.023,0-1.414c0.391-0.391,1.023-0.391,1.414,0l10.81,10.81c0.391,0.391,0.391,1.023,0,1.414
						C221.934,234.751,221.678,234.849,221.422,234.849z"/>
				</g>
				<g>
					<path style="fill:#58AD6F;" d="M224.602,231.269c-0.256,0-0.512-0.098-0.707-0.293l-10.41-10.41
						c-0.391-0.391-0.391-1.023,0-1.414c0.391-0.391,1.023-0.391,1.414,0l10.41,10.41c0.391,0.391,0.391,1.023,0,1.414
						C225.114,231.171,224.858,231.269,224.602,231.269z"/>
				</g>
				<g>
					<path style="fill:#58AD6F;" d="M227.792,227.689c-0.256,0-0.512-0.098-0.707-0.293l-10.02-10.009
						c-0.391-0.39-0.392-1.023-0.001-1.415c0.389-0.392,1.022-0.392,1.415-0.001l10.02,10.011c0.391,0.391,0.391,1.023,0,1.414
						C228.304,227.591,228.048,227.689,227.792,227.689z"/>
				</g>
				<g>
					<path style="fill:#58AD6F;" d="M230.973,224.109c-0.256,0-0.513-0.098-0.708-0.294l-9.609-9.62
						c-0.391-0.391-0.391-1.023,0-1.414c0.391-0.391,1.023-0.391,1.414,0l9.611,9.621c0.39,0.391,0.389,1.024-0.002,1.415
						C231.484,224.012,231.228,224.109,230.973,224.109z"/>
				</g>
				<g>
					<path style="fill:#58AD6F;" d="M234.163,220.529c-0.256,0-0.512-0.098-0.707-0.293l-9.22-9.22
						c-0.391-0.391-0.391-1.023,0-1.414c0.391-0.391,1.023-0.391,1.414,0l9.22,9.22c0.391,0.391,0.391,1.023,0,1.414
						C234.674,220.432,234.418,220.529,234.163,220.529z"/>
				</g>
			</g>
		</g>
	</g>
	<g>
		<path style="fill:#FFFFFF;" d="M249.519,230.972c-24.53,0-44.487-19.957-44.487-44.487c0-1.104,0.895-2,2-2c1.104,0,2,0.896,2,2
			c0,22.325,18.162,40.487,40.487,40.487c1.104,0,2,0.896,2,2C251.519,230.076,250.623,230.972,249.519,230.972z"/>
	</g>
	<g>
		<g id="XMLID_4_">
			<g>
				<polygon style="fill:#FDC875;" points="264.88,219.529 262.3,216.619 266.75,212.179 269.49,214.919 				"/>
				<polygon style="fill:#FDC875;" points="277.68,213.489 272.87,218.299 269.49,214.919 274.1,210.309 				"/>
				<polygon style="fill:#FDC875;" points="276.26,221.679 271.25,226.689 268.07,223.109 272.87,218.299 				"/>
				<polygon style="fill:#FDC875;" points="279.64,225.069 276.26,221.679 281.27,216.679 284.85,219.859 				"/>
				<polygon style="fill:#FDC875;" points="292.01,226.229 286.41,231.829 283.02,228.449 288.43,223.039 				"/>
				<polygon style="fill:#FDC875;" points="277.62,233.849 274.44,230.269 279.64,225.069 283.02,228.449 				"/>
				<polygon style="fill:#FDC875;" points="283.99,241.019 280.81,237.439 286.41,231.829 289.79,235.219 				"/>
				<polygon style="fill:#FDC875;" points="293.18,238.599 289.79,235.219 295.6,229.409 299.18,232.599 				"/>
				<polygon style="fill:#FDC875;" points="289.85,247.619 287.17,244.609 287.18,244.599 293.18,238.599 296.02,241.439 				"/>
				<polygon style="fill:#FDA875;" points="269.49,214.919 266.75,212.179 271.2,207.729 274.1,210.309 				"/>
				<polygon style="fill:#FDA875;" points="268.07,223.109 264.88,219.529 269.49,214.919 272.87,218.299 				"/>
				<polygon style="fill:#FDA875;" points="281.27,216.679 276.26,221.679 272.87,218.299 277.68,213.489 				"/>
				<polygon style="fill:#FDA875;" points="274.44,230.269 271.25,226.689 276.26,221.679 279.64,225.069 				"/>
				<polygon style="fill:#FDA875;" points="283.02,228.449 279.64,225.069 284.85,219.859 288.43,223.039 				"/>
				<polygon style="fill:#FDA875;" points="280.81,237.439 277.62,233.849 283.02,228.449 286.41,231.829 				"/>
				<polygon style="fill:#FDA875;" points="289.79,235.219 286.41,231.829 292.01,226.229 295.6,229.409 				"/>
				<polygon style="fill:#FDA875;" points="287.17,244.609 283.99,241.019 289.79,235.219 293.18,238.599 287.18,244.599 				"/>
				<polygon style="fill:#FDA875;" points="302.19,235.269 296.02,241.439 293.18,238.599 299.18,232.599 				"/>
			</g>
			<g>
				<g>
					<path style="fill:#58AD6F;" d="M296.02,242.439c-0.256,0-0.512-0.098-0.707-0.293l-42.88-42.87
						c-0.391-0.391-0.391-1.023,0-1.414c0.391-0.391,1.023-0.391,1.414,0l42.88,42.87c0.391,0.391,0.391,1.023,0,1.414
						C296.531,242.341,296.275,242.439,296.02,242.439z"/>
				</g>
				<g>
					<path style="fill:#58AD6F;" d="M289.85,248.619c-0.01,0-0.018,0-0.028,0c-0.275-0.008-0.535-0.129-0.719-0.335l-24.969-28.089
						c-0.001-0.001-0.002-0.001-0.002-0.001l-2.58-2.911c-0.352-0.396-0.333-0.997,0.042-1.372l8.899-8.889
						c0.375-0.374,0.976-0.392,1.372-0.04l30.988,27.539c0.207,0.183,0.328,0.442,0.337,0.718c0.008,0.275-0.098,0.542-0.293,0.737
						l-12.34,12.35C290.369,248.514,290.114,248.619,289.85,248.619z M265.628,218.865l24.264,27.297l10.841-10.85l-29.492-26.21
						l-7.566,7.558L265.628,218.865z"/>
				</g>
				<g>
					<path style="fill:#58AD6F;" d="M287.18,245.599c-0.256,0-0.512-0.098-0.707-0.293c-0.391-0.391-0.391-1.023,0-1.414l12-12
						c0.391-0.391,1.023-0.391,1.414,0c0.391,0.391,0.391,1.023,0,1.414l-12,12C287.691,245.501,287.435,245.599,287.18,245.599z"/>
				</g>
				<g>
					<path style="fill:#58AD6F;" d="M283.99,242.019c-0.256,0-0.512-0.098-0.707-0.293c-0.391-0.391-0.391-1.023,0-1.414
						l11.609-11.61c0.391-0.391,1.023-0.391,1.414,0c0.391,0.391,0.391,1.023,0,1.414l-11.609,11.61
						C284.502,241.921,284.246,242.019,283.99,242.019z"/>
				</g>
				<g>
					<path style="fill:#58AD6F;" d="M280.81,238.439c-0.256,0-0.512-0.097-0.706-0.292c-0.392-0.39-0.392-1.023-0.002-1.414
						l11.201-11.21c0.391-0.391,1.023-0.391,1.414,0c0.391,0.391,0.391,1.023,0,1.414l-11.199,11.209
						C281.322,238.341,281.065,238.439,280.81,238.439z"/>
				</g>
				<g>
					<path style="fill:#58AD6F;" d="M277.62,234.849c-0.256,0-0.512-0.098-0.707-0.293c-0.391-0.391-0.391-1.023,0-1.414
						l10.81-10.81c0.391-0.391,1.023-0.391,1.414,0c0.391,0.391,0.391,1.023,0,1.414l-10.81,10.81
						C278.132,234.751,277.876,234.849,277.62,234.849z"/>
				</g>
				<g>
					<path style="fill:#58AD6F;" d="M274.44,231.269c-0.256,0-0.512-0.098-0.707-0.293c-0.391-0.391-0.391-1.023,0-1.414
						l10.409-10.41c0.391-0.391,1.023-0.391,1.414,0c0.391,0.391,0.391,1.023,0,1.414l-10.409,10.41
						C274.952,231.171,274.696,231.269,274.44,231.269z"/>
				</g>
				<g>
					<path style="fill:#58AD6F;" d="M271.25,227.689c-0.256,0-0.512-0.098-0.707-0.293c-0.391-0.391-0.391-1.023,0-1.414
						l10.02-10.011c0.391-0.39,1.023-0.39,1.414,0.001c0.39,0.391,0.39,1.024-0.002,1.415l-10.019,10.009
						C271.762,227.591,271.506,227.689,271.25,227.689z"/>
				</g>
				<g>
					<path style="fill:#58AD6F;" d="M268.07,224.109c-0.256,0-0.511-0.097-0.706-0.292c-0.392-0.39-0.392-1.023-0.002-1.415
						l9.61-9.621c0.391-0.391,1.023-0.391,1.414,0c0.391,0.391,0.391,1.023,0,1.414l-9.608,9.62
						C268.583,224.011,268.326,224.109,268.07,224.109z"/>
				</g>
				<g>
					<path style="fill:#58AD6F;" d="M264.88,220.529c-0.256,0-0.512-0.098-0.707-0.293c-0.391-0.391-0.391-1.023,0-1.414l9.22-9.22
						c0.391-0.391,1.023-0.391,1.414,0c0.391,0.391,0.391,1.023,0,1.414l-9.22,9.22C265.392,220.432,265.136,220.529,264.88,220.529
						z"/>
				</g>
			</g>
		</g>
	</g>
	<g>
		<g id="XMLID_3_">
			<g>
				<polygon style="fill:#FDC875;" points="224.942,179.592 227.852,182.172 232.292,177.722 229.552,174.982 				"/>
				<polygon style="fill:#FDC875;" points="230.982,166.792 226.172,171.602 229.552,174.982 234.162,170.372 				"/>
				<polygon style="fill:#FDC875;" points="222.792,168.212 217.782,173.222 221.362,176.402 226.172,171.602 				"/>
				<polygon style="fill:#FDC875;" points="219.402,164.832 222.792,168.212 227.792,163.202 224.612,159.622 				"/>
				<polygon style="fill:#FDC875;" points="218.242,152.462 212.642,158.062 216.022,161.452 221.432,156.042 				"/>
				<polygon style="fill:#FDC875;" points="210.622,166.852 214.202,170.032 219.402,164.832 216.022,161.452 				"/>
				<polygon style="fill:#FDC875;" points="203.452,160.482 207.032,163.662 212.642,158.062 209.252,154.682 				"/>
				<polygon style="fill:#FDC875;" points="205.872,151.292 209.252,154.682 215.062,148.872 211.872,145.292 				"/>
				<polygon style="fill:#FDC875;" points="196.852,154.622 199.862,157.302 199.872,157.292 205.872,151.292 203.032,148.452 				
					"/>
				<polygon style="fill:#FDA875;" points="229.552,174.982 232.292,177.722 236.742,173.272 234.162,170.372 				"/>
				<polygon style="fill:#FDA875;" points="221.362,176.402 224.942,179.592 229.552,174.982 226.172,171.602 				"/>
				<polygon style="fill:#FDA875;" points="227.792,163.202 222.792,168.212 226.172,171.602 230.982,166.792 				"/>
				<polygon style="fill:#FDA875;" points="214.202,170.032 217.782,173.222 222.792,168.212 219.402,164.832 				"/>
				<polygon style="fill:#FDA875;" points="216.022,161.452 219.402,164.832 224.612,159.622 221.432,156.042 				"/>
				<polygon style="fill:#FDA875;" points="207.032,163.662 210.622,166.852 216.022,161.452 212.642,158.062 				"/>
				<polygon style="fill:#FDA875;" points="209.252,154.682 212.642,158.062 218.242,152.462 215.062,148.872 				"/>
				<polygon style="fill:#FDA875;" points="199.862,157.302 203.452,160.482 209.252,154.682 205.872,151.292 199.872,157.292 				
					"/>
				<polygon style="fill:#FDA875;" points="209.202,142.282 203.032,148.452 205.872,151.292 211.872,145.292 				"/>
			</g>
			<g>
				<g>
					<path style="fill:#58AD6F;" d="M245.902,192.331c-0.256,0-0.512-0.098-0.707-0.293l-42.87-42.88
						c-0.391-0.391-0.391-1.023,0-1.414c0.391-0.391,1.023-0.391,1.414,0l42.87,42.88c0.391,0.391,0.391,1.023,0,1.414
						C246.414,192.234,246.158,192.331,245.902,192.331z"/>
				</g>
				<g>
					<path style="fill:#58AD6F;" d="M227.852,183.172c-0.237,0-0.474-0.084-0.663-0.252l-2.91-2.58
						c-0.001,0-0.001-0.001-0.001-0.001l-28.09-24.97c-0.206-0.183-0.327-0.443-0.334-0.718c-0.008-0.275,0.098-0.542,0.293-0.736
						l12.35-12.339c0.194-0.195,0.468-0.31,0.737-0.293c0.275,0.008,0.536,0.13,0.718,0.336l27.539,30.989
						c0.352,0.395,0.335,0.997-0.04,1.372l-8.889,8.899C228.366,183.073,228.109,183.172,227.852,183.172z M225.607,178.845
						l2.203,1.953l7.558-7.567l-26.209-29.492l-10.85,10.84L225.607,178.845z"/>
				</g>
				<g>
					<path style="fill:#58AD6F;" d="M199.873,158.292c-0.256,0-0.512-0.098-0.707-0.293c-0.391-0.391-0.391-1.023,0-1.414l12-12
						c0.391-0.391,1.023-0.391,1.414,0c0.391,0.391,0.391,1.023,0,1.414l-12,12C200.384,158.194,200.128,158.292,199.873,158.292z"
						/>
				</g>
				<g>
					<path style="fill:#58AD6F;" d="M203.453,161.481c-0.256,0-0.512-0.098-0.707-0.293c-0.391-0.391-0.391-1.024,0-1.414
						l11.61-11.61c0.391-0.391,1.023-0.391,1.414,0c0.391,0.391,0.391,1.023,0,1.414l-11.61,11.61
						C203.964,161.384,203.708,161.481,203.453,161.481z"/>
				</g>
				<g>
					<path style="fill:#58AD6F;" d="M207.033,164.662c-0.256,0-0.512-0.098-0.707-0.293c-0.391-0.391-0.39-1.024,0.001-1.414
						l11.209-11.199c0.391-0.391,1.024-0.391,1.414,0s0.391,1.023,0,1.414l-11.21,11.2
						C207.544,164.564,207.289,164.662,207.033,164.662z"/>
				</g>
				<g>
					<path style="fill:#58AD6F;" d="M210.623,167.852c-0.256,0-0.512-0.098-0.707-0.293c-0.391-0.391-0.391-1.023,0-1.414
						l10.81-10.81c0.391-0.391,1.023-0.391,1.414,0c0.391,0.391,0.391,1.023,0,1.414l-10.81,10.81
						C211.134,167.754,210.878,167.852,210.623,167.852z"/>
				</g>
				<g>
					<path style="fill:#58AD6F;" d="M214.203,171.032c-0.256,0-0.512-0.098-0.707-0.293c-0.391-0.391-0.391-1.023,0-1.414
						l10.41-10.41c0.391-0.391,1.023-0.391,1.414,0c0.391,0.391,0.391,1.023,0,1.414l-10.41,10.41
						C214.714,170.934,214.458,171.032,214.203,171.032z"/>
				</g>
				<g>
					<path style="fill:#58AD6F;" d="M217.783,174.222c-0.256,0-0.512-0.098-0.707-0.293c-0.391-0.391-0.391-1.023,0-1.414
						l10.009-10.02c0.39-0.391,1.023-0.392,1.415-0.001c0.391,0.39,0.392,1.023,0.001,1.415l-10.011,10.02
						C218.294,174.124,218.039,174.222,217.783,174.222z"/>
				</g>
				<g>
					<path style="fill:#58AD6F;" d="M221.362,177.402c-0.256,0-0.513-0.098-0.708-0.294c-0.39-0.391-0.389-1.024,0.001-1.415
						l9.62-9.609c0.391-0.391,1.023-0.391,1.414,0c0.391,0.391,0.391,1.023,0,1.414l-9.621,9.611
						C221.873,177.305,221.618,177.402,221.362,177.402z"/>
				</g>
				<g>
					<path style="fill:#58AD6F;" d="M224.942,180.592c-0.256,0-0.512-0.098-0.707-0.293c-0.391-0.391-0.391-1.023,0-1.414l9.22-9.22
						c0.391-0.391,1.023-0.391,1.414,0c0.391,0.391,0.391,1.023,0,1.414l-9.22,9.22
						C225.454,180.494,225.198,180.592,224.942,180.592z"/>
				</g>
			</g>
		</g>
	</g>
	<path style="fill:#FDC875;" d="M347.438,115.812c-0.626-3.536-3.707-6.224-7.422-6.224c-0.224,0-0.445,0.014-0.664,0.034
		c0.422-1.186,0.664-2.457,0.664-3.788c0-6.24-5.059-11.299-11.299-11.299c-3.908,0-7.352,1.984-9.38,5
		c-2.186-1.142-4.671-1.792-7.308-1.792c-8.731,0-15.808,7.078-15.808,15.808c0,0.768,0.058,1.522,0.163,2.26H347.438z"/>
	<path style="fill:#FDC875;" d="M254.634,194.948c0-2.825-2.29-5.115-5.115-5.115s-5.115,2.29-5.115,5.115s2.29,5.115,5.115,5.115
		S254.634,197.773,254.634,194.948z"/>
</g>
<g id="DESIGNED_BY_FREEPIK">
	<g>
		<g>
			<path style="fill:#5A1A5A;" d="M179.552,478.301v-0.161c-0.218,0.249-0.433,0.452-0.644,0.608
				c-0.212,0.157-0.441,0.276-0.689,0.357c-0.247,0.082-0.517,0.122-0.81,0.122c-0.388,0-0.747-0.082-1.078-0.246
				c-0.33-0.164-0.616-0.399-0.857-0.704c-0.242-0.305-0.425-0.662-0.549-1.074c-0.124-0.412-0.187-0.857-0.187-1.335
				c0-1.013,0.247-1.804,0.742-2.369c0.495-0.565,1.146-0.848,1.953-0.848c0.467,0,0.861,0.081,1.181,0.24
				c0.321,0.161,0.633,0.408,0.938,0.739v-2.392c0-0.333,0.066-0.583,0.199-0.754c0.132-0.17,0.321-0.255,0.567-0.255
				c0.245,0,0.434,0.078,0.567,0.234c0.133,0.157,0.199,0.386,0.199,0.691v7.147c0,0.309-0.071,0.54-0.214,0.694
				c-0.142,0.154-0.326,0.231-0.552,0.231c-0.221,0-0.405-0.08-0.549-0.24C179.624,478.826,179.552,478.598,179.552,478.301z
				 M176.364,475.921c0,0.439,0.068,0.813,0.205,1.122c0.137,0.309,0.324,0.541,0.561,0.697c0.238,0.157,0.497,0.236,0.778,0.236
				c0.285,0,0.545-0.075,0.781-0.223c0.235-0.148,0.423-0.376,0.564-0.682c0.141-0.307,0.21-0.691,0.21-1.149
				c0-0.432-0.07-0.803-0.21-1.114c-0.14-0.31-0.33-0.548-0.57-0.712c-0.24-0.164-0.502-0.245-0.786-0.245
				c-0.297,0-0.562,0.084-0.795,0.252c-0.234,0.168-0.415,0.409-0.543,0.724C176.428,475.14,176.364,475.505,176.364,475.921z"/>
			<path style="fill:#5A1A5A;" d="M186.698,476.331h-3.169c0.004,0.367,0.078,0.692,0.223,0.973
				c0.144,0.281,0.336,0.493,0.576,0.635c0.24,0.143,0.504,0.213,0.793,0.213c0.194,0,0.371-0.022,0.531-0.067
				c0.16-0.046,0.315-0.117,0.466-0.214c0.15-0.096,0.289-0.201,0.415-0.312c0.126-0.111,0.29-0.262,0.493-0.452
				c0.083-0.071,0.202-0.107,0.357-0.107c0.166,0,0.3,0.046,0.403,0.137c0.103,0.092,0.155,0.219,0.155,0.386
				c0,0.147-0.058,0.317-0.172,0.513c-0.116,0.196-0.289,0.384-0.52,0.564c-0.232,0.18-0.522,0.329-0.873,0.448
				c-0.35,0.119-0.753,0.178-1.208,0.178c-1.04,0-1.85-0.297-2.428-0.891c-0.578-0.593-0.866-1.399-0.866-2.416
				c0-0.479,0.071-0.923,0.213-1.332c0.143-0.41,0.351-0.761,0.623-1.054c0.273-0.293,0.609-0.517,1.009-0.674
				c0.4-0.156,0.843-0.234,1.33-0.234c0.633,0,1.176,0.133,1.629,0.4c0.454,0.267,0.794,0.612,1.019,1.035
				c0.225,0.424,0.339,0.856,0.339,1.294c0,0.408-0.117,0.672-0.35,0.794C187.45,476.27,187.122,476.331,186.698,476.331z
				 M183.528,475.411h2.939c-0.039-0.554-0.19-0.969-0.448-1.244c-0.259-0.275-0.6-0.413-1.024-0.413
				c-0.404,0-0.735,0.139-0.994,0.418C183.741,474.451,183.584,474.864,183.528,475.411z"/>
			<path style="fill:#5A1A5A;" d="M194.082,477.107c0,0.447-0.108,0.831-0.327,1.149c-0.217,0.319-0.539,0.56-0.965,0.724
				c-0.425,0.164-0.943,0.246-1.552,0.246c-0.582,0-1.08-0.089-1.496-0.267c-0.415-0.178-0.722-0.401-0.92-0.667
				c-0.198-0.268-0.297-0.535-0.297-0.805c0-0.178,0.063-0.33,0.19-0.457c0.126-0.126,0.287-0.19,0.481-0.19
				c0.17,0,0.3,0.042,0.391,0.124c0.091,0.083,0.178,0.2,0.261,0.35c0.166,0.29,0.366,0.504,0.597,0.648
				c0.231,0.142,0.547,0.214,0.947,0.214c0.324,0,0.59-0.073,0.798-0.217c0.208-0.145,0.311-0.31,0.311-0.496
				c0-0.285-0.107-0.492-0.324-0.622c-0.216-0.131-0.571-0.256-1.066-0.375c-0.558-0.138-1.012-0.284-1.362-0.436
				c-0.35-0.151-0.63-0.353-0.84-0.602c-0.21-0.25-0.315-0.557-0.315-0.92c0-0.324,0.097-0.631,0.291-0.92
				c0.194-0.288,0.48-0.519,0.859-0.691c0.377-0.173,0.833-0.259,1.367-0.259c0.419,0,0.797,0.043,1.131,0.131
				c0.335,0.086,0.614,0.204,0.837,0.35c0.224,0.146,0.394,0.308,0.51,0.486c0.117,0.178,0.175,0.352,0.175,0.523
				c0,0.186-0.062,0.338-0.186,0.457c-0.125,0.118-0.301,0.178-0.532,0.178c-0.166,0-0.308-0.048-0.424-0.143
				c-0.117-0.095-0.25-0.237-0.401-0.427c-0.123-0.158-0.266-0.285-0.433-0.38c-0.166-0.095-0.392-0.142-0.677-0.142
				c-0.293,0-0.536,0.062-0.73,0.187c-0.194,0.124-0.291,0.279-0.291,0.465c0,0.171,0.071,0.31,0.213,0.419
				c0.143,0.109,0.334,0.2,0.576,0.27c0.242,0.071,0.573,0.158,0.997,0.261c0.502,0.123,0.912,0.27,1.231,0.44
				c0.318,0.17,0.56,0.371,0.725,0.603C194,476.547,194.082,476.811,194.082,477.107z"/>
			<path style="fill:#5A1A5A;" d="M195.738,471.885c-0.226,0-0.418-0.07-0.579-0.208c-0.16-0.138-0.24-0.334-0.24-0.588
				c0-0.23,0.082-0.418,0.246-0.567c0.164-0.149,0.355-0.223,0.573-0.223c0.21,0,0.396,0.067,0.558,0.202
				c0.162,0.135,0.244,0.33,0.244,0.588c0,0.25-0.08,0.444-0.238,0.585C196.143,471.814,195.955,471.885,195.738,471.885z
				 M196.539,473.558v4.683c0,0.325-0.077,0.571-0.232,0.737c-0.155,0.166-0.35,0.249-0.588,0.249c-0.238,0-0.431-0.085-0.579-0.255
				c-0.149-0.17-0.222-0.414-0.222-0.73v-4.636c0-0.32,0.074-0.561,0.222-0.724c0.148-0.162,0.341-0.243,0.579-0.243
				c0.238,0,0.433,0.081,0.588,0.243C196.462,473.044,196.539,473.27,196.539,473.558z"/>
			<path style="fill:#5A1A5A;" d="M203.639,473.826v4.707c0,0.538-0.058,1.001-0.173,1.39c-0.114,0.387-0.298,0.708-0.552,0.961
				c-0.253,0.253-0.585,0.441-0.994,0.563c-0.41,0.123-0.919,0.184-1.529,0.184c-0.558,0-1.056-0.078-1.496-0.234
				c-0.439-0.157-0.777-0.358-1.015-0.605c-0.237-0.247-0.357-0.502-0.357-0.763c0-0.198,0.068-0.359,0.202-0.483
				c0.134-0.125,0.297-0.187,0.487-0.187c0.237,0,0.445,0.105,0.623,0.314c0.087,0.107,0.177,0.216,0.27,0.324
				c0.093,0.109,0.197,0.202,0.309,0.28c0.113,0.076,0.249,0.134,0.406,0.172c0.158,0.037,0.341,0.056,0.546,0.056
				c0.42,0,0.745-0.058,0.977-0.175c0.232-0.117,0.394-0.28,0.487-0.49c0.093-0.209,0.147-0.433,0.163-0.673
				c0.016-0.24,0.027-0.624,0.035-1.155c-0.25,0.349-0.537,0.615-0.864,0.797c-0.326,0.182-0.715,0.273-1.166,0.273
				c-0.542,0-1.016-0.138-1.422-0.416c-0.405-0.277-0.717-0.665-0.934-1.163c-0.218-0.499-0.326-1.074-0.326-1.727
				c0-0.487,0.066-0.927,0.198-1.318c0.133-0.393,0.322-0.723,0.567-0.992c0.245-0.269,0.528-0.472,0.849-0.609
				c0.321-0.136,0.673-0.204,1.057-0.204c0.459,0,0.857,0.089,1.193,0.264c0.336,0.177,0.649,0.453,0.938,0.829v-0.22
				c0-0.281,0.069-0.498,0.208-0.653c0.139-0.154,0.317-0.231,0.535-0.231c0.313,0,0.52,0.103,0.623,0.306
				C203.587,473.147,203.639,473.442,203.639,473.826z M198.943,475.879c0,0.657,0.143,1.154,0.43,1.49
				c0.287,0.337,0.658,0.505,1.113,0.505c0.269,0,0.523-0.073,0.762-0.217c0.24-0.145,0.435-0.362,0.585-0.653
				c0.15-0.291,0.226-0.644,0.226-1.06c0-0.66-0.145-1.176-0.436-1.543c-0.291-0.368-0.674-0.552-1.149-0.552
				c-0.463,0-0.834,0.176-1.113,0.529C199.082,474.729,198.943,475.231,198.943,475.879z"/>
			<path style="fill:#5A1A5A;" d="M206.214,473.534v0.196c0.285-0.376,0.596-0.652,0.935-0.828c0.338-0.176,0.727-0.264,1.166-0.264
				c0.427,0,0.809,0.093,1.146,0.28c0.336,0.186,0.588,0.449,0.753,0.789c0.108,0.198,0.176,0.413,0.208,0.642
				c0.032,0.23,0.048,0.522,0.048,0.879v3.015c0,0.325-0.075,0.571-0.223,0.737c-0.148,0.166-0.341,0.249-0.579,0.249
				c-0.242,0-0.437-0.085-0.588-0.255c-0.151-0.17-0.225-0.414-0.225-0.73v-2.701c0-0.534-0.074-0.943-0.223-1.226
				c-0.149-0.283-0.444-0.425-0.888-0.425c-0.288,0-0.552,0.086-0.789,0.258c-0.237,0.173-0.412,0.41-0.522,0.71
				c-0.079,0.242-0.119,0.692-0.119,1.353v2.03c0,0.328-0.077,0.576-0.228,0.74c-0.152,0.164-0.349,0.246-0.59,0.246
				c-0.234,0-0.426-0.085-0.576-0.255c-0.15-0.17-0.225-0.414-0.225-0.73v-4.683c0-0.309,0.067-0.54,0.202-0.692
				c0.135-0.152,0.319-0.228,0.552-0.228c0.143,0,0.272,0.034,0.387,0.101c0.114,0.068,0.207,0.168,0.276,0.302
				C206.179,473.176,206.214,473.341,206.214,473.534z"/>
			<path style="fill:#5A1A5A;" d="M216.073,476.331h-3.17c0.004,0.367,0.078,0.692,0.223,0.973c0.144,0.281,0.336,0.493,0.576,0.635
				c0.239,0.143,0.503,0.213,0.792,0.213c0.194,0,0.371-0.022,0.532-0.067c0.16-0.046,0.315-0.117,0.466-0.214
				c0.15-0.096,0.288-0.201,0.416-0.312c0.126-0.111,0.29-0.262,0.492-0.452c0.083-0.071,0.202-0.107,0.356-0.107
				c0.166,0,0.301,0.046,0.404,0.137c0.103,0.092,0.154,0.219,0.154,0.386c0,0.147-0.057,0.317-0.172,0.513
				c-0.115,0.196-0.288,0.384-0.52,0.564c-0.232,0.18-0.522,0.329-0.872,0.448c-0.35,0.119-0.753,0.178-1.208,0.178
				c-1.041,0-1.85-0.297-2.428-0.891c-0.577-0.593-0.866-1.399-0.866-2.416c0-0.479,0.071-0.923,0.214-1.332
				c0.143-0.41,0.351-0.761,0.624-1.054c0.273-0.293,0.609-0.517,1.009-0.674c0.399-0.156,0.843-0.234,1.33-0.234
				c0.633,0,1.176,0.133,1.629,0.4c0.453,0.267,0.793,0.612,1.019,1.035c0.225,0.424,0.338,0.856,0.338,1.294
				c0,0.408-0.117,0.672-0.35,0.794C216.825,476.27,216.497,476.331,216.073,476.331z M212.903,475.411h2.938
				c-0.039-0.554-0.189-0.969-0.448-1.244c-0.259-0.275-0.6-0.413-1.024-0.413c-0.404,0-0.736,0.139-0.995,0.418
				C213.115,474.451,212.959,474.864,212.903,475.411z"/>
			<path style="fill:#5A1A5A;" d="M222.679,478.301v-0.161c-0.218,0.249-0.432,0.452-0.644,0.608
				c-0.212,0.157-0.441,0.276-0.688,0.357c-0.247,0.082-0.517,0.122-0.81,0.122c-0.389,0-0.747-0.082-1.078-0.246
				c-0.331-0.164-0.616-0.399-0.858-0.704c-0.242-0.305-0.424-0.662-0.549-1.074c-0.125-0.412-0.187-0.857-0.187-1.335
				c0-1.013,0.247-1.804,0.742-2.369c0.495-0.565,1.146-0.848,1.953-0.848c0.467,0,0.861,0.081,1.181,0.24
				c0.32,0.161,0.633,0.408,0.938,0.739v-2.392c0-0.333,0.066-0.583,0.199-0.754c0.132-0.17,0.322-0.255,0.567-0.255
				c0.245,0,0.434,0.078,0.567,0.234c0.133,0.157,0.199,0.386,0.199,0.691v7.147c0,0.309-0.071,0.54-0.214,0.694
				c-0.143,0.154-0.326,0.231-0.552,0.231c-0.222,0-0.405-0.08-0.549-0.24C222.751,478.826,222.679,478.598,222.679,478.301z
				 M219.492,475.921c0,0.439,0.068,0.813,0.204,1.122c0.137,0.309,0.324,0.541,0.562,0.697c0.237,0.157,0.496,0.236,0.777,0.236
				c0.285,0,0.546-0.075,0.781-0.223c0.236-0.148,0.424-0.376,0.564-0.682c0.141-0.307,0.211-0.691,0.211-1.149
				c0-0.432-0.07-0.803-0.211-1.114c-0.14-0.31-0.33-0.548-0.57-0.712c-0.24-0.164-0.502-0.245-0.787-0.245
				c-0.296,0-0.562,0.084-0.795,0.252c-0.233,0.168-0.414,0.409-0.543,0.724C219.556,475.14,219.492,475.505,219.492,475.921z"/>
			<path style="fill:#5A1A5A;" d="M229.303,471.154v2.475c0.304-0.316,0.615-0.559,0.932-0.727c0.316-0.168,0.709-0.252,1.175-0.252
				c0.538,0,1.01,0.128,1.416,0.382c0.405,0.256,0.72,0.626,0.944,1.111c0.223,0.484,0.336,1.06,0.336,1.725
				c0,0.491-0.063,0.94-0.187,1.35c-0.125,0.41-0.306,0.765-0.543,1.065c-0.238,0.301-0.525,0.534-0.864,0.698
				c-0.339,0.164-0.712,0.246-1.119,0.246c-0.25,0-0.484-0.029-0.703-0.089c-0.22-0.059-0.407-0.137-0.561-0.234
				c-0.154-0.096-0.286-0.197-0.395-0.3c-0.109-0.103-0.253-0.258-0.431-0.463v0.161c0,0.305-0.073,0.535-0.22,0.692
				c-0.146,0.156-0.332,0.234-0.558,0.234c-0.23,0-0.413-0.078-0.549-0.234c-0.137-0.157-0.205-0.388-0.205-0.692v-7.077
				c0-0.328,0.066-0.577,0.198-0.745c0.133-0.168,0.318-0.252,0.555-0.252c0.25,0,0.441,0.08,0.576,0.24
				C229.235,470.629,229.303,470.857,229.303,471.154z M229.38,475.969c0,0.645,0.147,1.14,0.442,1.486
				c0.295,0.347,0.682,0.521,1.161,0.521c0.407,0,0.759-0.177,1.053-0.532c0.295-0.355,0.442-0.862,0.442-1.523
				c0-0.427-0.061-0.796-0.184-1.104c-0.123-0.309-0.297-0.548-0.522-0.715c-0.226-0.168-0.489-0.252-0.79-0.252
				c-0.309,0-0.584,0.084-0.825,0.252c-0.242,0.168-0.431,0.411-0.57,0.73C229.449,475.149,229.38,475.529,229.38,475.969z"/>
			<path style="fill:#5A1A5A;" d="M236.207,479.429l0.148-0.363l-1.995-5.022c-0.122-0.288-0.184-0.499-0.184-0.629
				c0-0.139,0.036-0.267,0.107-0.385c0.071-0.119,0.169-0.214,0.294-0.285c0.125-0.072,0.255-0.107,0.389-0.107
				c0.233,0,0.409,0.075,0.529,0.223c0.119,0.148,0.223,0.361,0.314,0.638l1.372,3.989l1.3-3.71c0.103-0.3,0.196-0.536,0.279-0.706
				c0.083-0.17,0.171-0.285,0.264-0.344c0.093-0.06,0.225-0.09,0.395-0.09c0.123,0,0.24,0.032,0.353,0.098
				c0.113,0.065,0.2,0.153,0.261,0.264c0.061,0.111,0.092,0.227,0.092,0.35c-0.016,0.075-0.041,0.182-0.077,0.321
				c-0.036,0.138-0.079,0.279-0.13,0.421l-2.113,5.533c-0.183,0.487-0.361,0.868-0.535,1.145c-0.174,0.277-0.404,0.491-0.692,0.638
				c-0.287,0.149-0.674,0.223-1.161,0.223c-0.475,0-0.831-0.051-1.068-0.154c-0.238-0.104-0.356-0.292-0.356-0.565
				c0-0.186,0.056-0.33,0.169-0.43c0.112-0.101,0.28-0.152,0.501-0.152c0.087,0,0.173,0.012,0.256,0.037
				c0.103,0.023,0.192,0.035,0.267,0.035c0.186,0,0.333-0.027,0.44-0.084c0.106-0.055,0.202-0.151,0.288-0.288
				C235.998,479.896,236.096,479.694,236.207,479.429z"/>
		</g>
		<g>
			<path style="fill:#5A1A5A;" d="M259.683,472.778h0.386v-0.487c0-0.509,0.062-0.911,0.192-1.211
				c0.128-0.299,0.347-0.516,0.654-0.653c0.307-0.135,0.727-0.204,1.26-0.204c0.95,0,1.42,0.23,1.42,0.697
				c0,0.149-0.049,0.278-0.15,0.385c-0.096,0.106-0.214,0.16-0.349,0.16c-0.062,0-0.174-0.012-0.329-0.037
				c-0.148-0.021-0.283-0.035-0.389-0.035c-0.292,0-0.479,0.088-0.566,0.259c-0.079,0.172-0.122,0.418-0.122,0.74v0.386h0.396
				c0.62,0,0.926,0.186,0.926,0.56c0,0.262-0.079,0.432-0.245,0.503c-0.163,0.071-0.39,0.107-0.68,0.107h-0.396v4.294
				c0,0.319-0.075,0.563-0.231,0.73c-0.151,0.17-0.346,0.254-0.589,0.254c-0.229,0-0.419-0.084-0.574-0.254
				c-0.153-0.167-0.228-0.411-0.228-0.73v-4.294h-0.446c-0.243,0-0.427-0.052-0.558-0.164c-0.131-0.107-0.197-0.25-0.197-0.423
				C258.869,472.97,259.14,472.778,259.683,472.778"/>
			<path style="fill:#5A1A5A;" d="M264.989,476.887v1.355c0,0.327-0.083,0.574-0.234,0.737c-0.154,0.166-0.349,0.247-0.586,0.247
				c-0.239,0-0.43-0.082-0.579-0.25c-0.148-0.165-0.225-0.41-0.225-0.734v-4.514c0-0.729,0.262-1.093,0.788-1.093
				c0.271,0,0.464,0.084,0.583,0.255c0.119,0.171,0.184,0.421,0.198,0.755c0.192-0.334,0.39-0.584,0.593-0.755
				c0.208-0.171,0.477-0.255,0.819-0.255c0.343,0,0.67,0.084,0.991,0.255c0.322,0.171,0.482,0.398,0.482,0.678
				c0,0.197-0.069,0.363-0.204,0.488c-0.137,0.131-0.284,0.195-0.441,0.195c-0.062,0-0.207-0.039-0.433-0.112
				c-0.228-0.071-0.43-0.108-0.602-0.108c-0.237,0-0.433,0.064-0.582,0.186c-0.151,0.128-0.269,0.311-0.353,0.554
				c-0.081,0.247-0.137,0.541-0.17,0.878C265.003,475.987,264.989,476.401,264.989,476.887"/>
			<path style="fill:#5A1A5A;" d="M272.44,476.329h-3.171c0.005,0.367,0.077,0.694,0.222,0.974c0.147,0.279,0.337,0.491,0.578,0.635
				c0.24,0.142,0.502,0.212,0.793,0.212c0.194,0,0.371-0.021,0.531-0.07c0.159-0.043,0.316-0.116,0.466-0.213
				c0.151-0.095,0.288-0.199,0.415-0.313c0.126-0.109,0.292-0.26,0.494-0.449c0.084-0.071,0.203-0.109,0.355-0.109
				c0.168,0,0.301,0.046,0.406,0.139c0.104,0.092,0.152,0.219,0.152,0.386c0,0.147-0.055,0.317-0.167,0.512
				c-0.117,0.198-0.289,0.385-0.522,0.567c-0.234,0.178-0.524,0.329-0.873,0.446c-0.35,0.119-0.754,0.179-1.207,0.179
				c-1.044,0-1.852-0.296-2.429-0.889c-0.578-0.595-0.87-1.401-0.87-2.418c0-0.479,0.073-0.924,0.217-1.334
				c0.14-0.411,0.349-0.76,0.624-1.055c0.272-0.294,0.606-0.518,1.008-0.674c0.399-0.156,0.842-0.234,1.33-0.234
				c0.632,0,1.175,0.134,1.629,0.404c0.452,0.264,0.796,0.61,1.018,1.034c0.226,0.426,0.339,0.855,0.339,1.296
				c0,0.405-0.118,0.669-0.351,0.791C273.191,476.269,272.863,476.329,272.44,476.329 M269.268,475.408h2.938
				c-0.039-0.553-0.186-0.969-0.446-1.241c-0.261-0.277-0.599-0.413-1.025-0.413c-0.403,0-0.735,0.137-0.995,0.418
				C269.481,474.451,269.323,474.862,269.268,475.408"/>
			<path style="fill:#5A1A5A;" d="M279.182,476.329h-3.171c0.004,0.367,0.078,0.694,0.221,0.974
				c0.145,0.279,0.337,0.491,0.576,0.635c0.239,0.142,0.504,0.212,0.795,0.212c0.192,0,0.37-0.021,0.528-0.07
				c0.162-0.043,0.316-0.116,0.469-0.213c0.151-0.095,0.287-0.199,0.415-0.313c0.125-0.109,0.29-0.26,0.493-0.449
				c0.084-0.071,0.204-0.109,0.355-0.109c0.168,0,0.302,0.046,0.407,0.139c0.103,0.092,0.15,0.219,0.15,0.386
				c0,0.147-0.054,0.317-0.171,0.512c-0.11,0.198-0.284,0.385-0.519,0.567c-0.231,0.178-0.525,0.329-0.872,0.446
				c-0.349,0.119-0.755,0.179-1.209,0.179c-1.042,0-1.849-0.296-2.429-0.889c-0.577-0.595-0.868-1.401-0.868-2.418
				c0-0.479,0.073-0.924,0.217-1.334c0.142-0.411,0.349-0.76,0.623-1.055c0.272-0.294,0.608-0.518,1.009-0.674
				c0.398-0.156,0.844-0.234,1.331-0.234c0.63,0,1.174,0.134,1.633,0.404c0.45,0.264,0.791,0.61,1.013,1.034
				c0.225,0.426,0.341,0.855,0.341,1.296c0,0.405-0.12,0.669-0.351,0.791C279.932,476.269,279.604,476.329,279.182,476.329
				 M276.011,475.408h2.938c-0.04-0.553-0.19-0.969-0.447-1.241c-0.263-0.277-0.601-0.413-1.027-0.413
				c-0.403,0-0.735,0.137-0.996,0.418C276.222,474.451,276.063,474.862,276.011,475.408"/>
			<path style="fill:#5A1A5A;" d="M282.732,473.547v0.194c0.304-0.375,0.621-0.651,0.953-0.828c0.324-0.178,0.699-0.267,1.114-0.267
				c0.497,0,0.96,0.13,1.379,0.386c0.419,0.259,0.749,0.635,0.993,1.129c0.244,0.497,0.366,1.081,0.366,1.758
				c0,0.498-0.07,0.957-0.21,1.376c-0.14,0.417-0.336,0.767-0.58,1.05c-0.246,0.281-0.535,0.501-0.868,0.654
				c-0.339,0.151-0.695,0.227-1.08,0.227c-0.461,0-0.853-0.093-1.166-0.28c-0.314-0.183-0.614-0.458-0.901-0.816v2.433
				c0,0.71-0.26,1.069-0.778,1.069c-0.306,0-0.505-0.092-0.607-0.275c-0.095-0.187-0.146-0.452-0.146-0.807v-6.996
				c0-0.309,0.067-0.537,0.2-0.692c0.134-0.15,0.32-0.228,0.553-0.228c0.231,0,0.416,0.078,0.56,0.234
				C282.661,473.027,282.732,473.25,282.732,473.547 M285.909,475.901c0-0.428-0.067-0.796-0.197-1.102
				c-0.131-0.308-0.312-0.542-0.541-0.705c-0.229-0.164-0.489-0.248-0.77-0.248c-0.446,0-0.824,0.178-1.13,0.527
				c-0.308,0.354-0.462,0.872-0.462,1.558c0,0.642,0.153,1.146,0.46,1.504c0.305,0.358,0.679,0.536,1.133,0.536
				c0.268,0,0.519-0.079,0.748-0.233c0.232-0.158,0.416-0.392,0.552-0.704C285.839,476.722,285.909,476.344,285.909,475.901"/>
			<path style="fill:#5A1A5A;" d="M289.169,471.88c-0.226,0-0.418-0.071-0.577-0.209c-0.162-0.139-0.242-0.333-0.242-0.585
				c0-0.23,0.082-0.419,0.248-0.569c0.164-0.147,0.354-0.222,0.571-0.222c0.212,0,0.397,0.067,0.559,0.2
				c0.162,0.137,0.244,0.334,0.244,0.591c0,0.25-0.079,0.444-0.236,0.585C289.577,471.809,289.389,471.88,289.169,471.88
				 M289.972,473.555v4.689c0,0.322-0.077,0.568-0.231,0.732c-0.156,0.168-0.35,0.25-0.588,0.25c-0.238,0-0.428-0.084-0.58-0.254
				c-0.146-0.173-0.222-0.416-0.222-0.729v-4.642c0-0.319,0.076-0.559,0.222-0.722c0.152-0.165,0.342-0.245,0.58-0.245
				c0.238,0,0.432,0.079,0.588,0.245C289.894,473.042,289.972,473.268,289.972,473.555"/>
			<path style="fill:#5A1A5A;" d="M295.196,478.486l-1.428-2.354l-0.88,0.83v1.291c0,0.312-0.083,0.551-0.248,0.718
				c-0.16,0.17-0.354,0.254-0.566,0.254c-0.249,0-0.447-0.082-0.588-0.25c-0.142-0.165-0.215-0.41-0.215-0.734v-6.915
				c0-0.358,0.071-0.632,0.207-0.821c0.139-0.19,0.341-0.283,0.596-0.283c0.25,0,0.445,0.086,0.593,0.257
				c0.146,0.169,0.221,0.421,0.221,0.751v3.933l1.822-1.914c0.227-0.235,0.396-0.4,0.517-0.486c0.118-0.087,0.262-0.13,0.431-0.13
				c0.204,0,0.371,0.065,0.51,0.193c0.132,0.129,0.2,0.291,0.2,0.483c0,0.237-0.221,0.555-0.659,0.951l-0.861,0.789l1.662,2.614
				c0.121,0.196,0.212,0.34,0.265,0.441c0.052,0.099,0.081,0.2,0.081,0.289c0,0.258-0.071,0.459-0.213,0.61
				c-0.14,0.148-0.327,0.221-0.554,0.221c-0.198,0-0.352-0.051-0.458-0.16C295.526,478.958,295.377,478.764,295.196,478.486"/>
			<path style="fill:#5A1A5A;" d="M298.718,479.226c-0.245,0-0.455-0.079-0.634-0.238c-0.178-0.156-0.268-0.378-0.268-0.665
				c0-0.241,0.086-0.449,0.256-0.622c0.172-0.174,0.38-0.262,0.63-0.262c0.248,0,0.46,0.087,0.639,0.258
				c0.174,0.172,0.264,0.383,0.264,0.626c0,0.283-0.089,0.505-0.264,0.662C299.163,479.147,298.955,479.226,298.718,479.226"/>
			<path style="fill:#5A1A5A;" d="M306.78,477.22c0,0.2-0.06,0.418-0.182,0.646c-0.12,0.231-0.305,0.449-0.553,0.656
				c-0.247,0.208-0.557,0.377-0.935,0.502c-0.375,0.126-0.8,0.192-1.269,0.192c-1.004,0-1.786-0.293-2.349-0.876
				c-0.56-0.585-0.841-1.368-0.841-2.35c0-0.667,0.128-1.254,0.387-1.765c0.254-0.509,0.628-0.905,1.113-1.184
				c0.487-0.28,1.072-0.419,1.746-0.419c0.421,0,0.805,0.061,1.158,0.184c0.35,0.122,0.645,0.282,0.891,0.474
				c0.242,0.197,0.428,0.402,0.556,0.62c0.129,0.22,0.192,0.426,0.192,0.617c0,0.192-0.071,0.357-0.214,0.492
				c-0.147,0.134-0.322,0.203-0.524,0.203c-0.137,0-0.249-0.035-0.338-0.104c-0.09-0.07-0.19-0.181-0.299-0.339
				c-0.198-0.299-0.404-0.526-0.622-0.674c-0.214-0.152-0.488-0.226-0.821-0.226c-0.476,0-0.865,0.186-1.159,0.561
				c-0.292,0.372-0.44,0.888-0.44,1.534c0,0.305,0.039,0.587,0.114,0.842c0.073,0.255,0.182,0.472,0.325,0.652
				c0.144,0.179,0.315,0.315,0.516,0.409c0.203,0.096,0.425,0.141,0.665,0.141c0.326,0,0.604-0.075,0.836-0.225
				c0.235-0.151,0.439-0.38,0.616-0.689c0.099-0.182,0.204-0.324,0.318-0.427c0.114-0.102,0.256-0.156,0.422-0.156
				c0.198,0,0.363,0.077,0.491,0.227C306.714,476.889,306.78,477.051,306.78,477.22"/>
			<path style="fill:#5A1A5A;" d="M313.774,475.932c0,0.481-0.076,0.928-0.222,1.337c-0.154,0.408-0.37,0.758-0.656,1.049
				c-0.284,0.293-0.626,0.518-1.02,0.675c-0.4,0.154-0.844,0.234-1.337,0.234c-0.491,0-0.933-0.08-1.326-0.239
				c-0.389-0.156-0.732-0.384-1.016-0.676c-0.288-0.298-0.505-0.646-0.657-1.048c-0.143-0.402-0.219-0.846-0.219-1.332
				c0-0.491,0.077-0.941,0.224-1.349c0.151-0.409,0.368-0.758,0.649-1.046c0.282-0.289,0.621-0.511,1.019-0.669
				c0.402-0.156,0.844-0.234,1.326-0.234c0.49,0,0.936,0.078,1.337,0.239c0.398,0.157,0.739,0.384,1.027,0.674
				c0.286,0.297,0.502,0.643,0.65,1.045C313.699,475,313.774,475.443,313.774,475.932 M312.147,475.932
				c0-0.662-0.146-1.176-0.436-1.543c-0.289-0.372-0.681-0.555-1.171-0.555c-0.317,0-0.597,0.082-0.839,0.246
				c-0.242,0.163-0.425,0.406-0.556,0.727c-0.131,0.321-0.197,0.696-0.197,1.124c0,0.424,0.064,0.792,0.194,1.108
				c0.13,0.319,0.314,0.561,0.553,0.729c0.241,0.167,0.522,0.253,0.845,0.253c0.49,0,0.882-0.185,1.171-0.557
				C312,477.095,312.147,476.582,312.147,475.932"/>
			<path style="fill:#5A1A5A;" d="M319.956,476.051v2.154c0,0.342-0.075,0.594-0.231,0.767c-0.156,0.17-0.357,0.255-0.611,0.255
				c-0.245,0-0.446-0.085-0.595-0.255c-0.154-0.173-0.232-0.425-0.232-0.767v-2.582c0-0.408-0.013-0.726-0.04-0.953
				c-0.029-0.221-0.105-0.41-0.226-0.552c-0.123-0.147-0.318-0.22-0.582-0.22c-0.532,0-0.879,0.181-1.048,0.551
				c-0.167,0.36-0.254,0.883-0.254,1.567v2.189c0,0.336-0.076,0.591-0.226,0.765c-0.156,0.171-0.355,0.258-0.603,0.258
				c-0.247,0-0.448-0.087-0.604-0.258c-0.157-0.173-0.235-0.428-0.235-0.765v-4.637c0-0.306,0.07-0.538,0.209-0.695
				c0.143-0.161,0.329-0.239,0.556-0.239c0.223,0,0.407,0.077,0.557,0.222c0.148,0.149,0.222,0.354,0.222,0.615v0.153
				c0.283-0.334,0.584-0.582,0.903-0.738c0.323-0.162,0.676-0.241,1.07-0.241c0.407,0,0.757,0.082,1.049,0.244
				c0.293,0.163,0.533,0.41,0.725,0.735c0.275-0.33,0.568-0.577,0.881-0.738c0.313-0.161,0.658-0.241,1.039-0.241
				c0.441,0,0.826,0.089,1.146,0.262c0.319,0.174,0.558,0.425,0.717,0.747c0.138,0.295,0.206,0.756,0.206,1.385v3.164
				c0,0.342-0.076,0.594-0.229,0.767c-0.154,0.17-0.359,0.255-0.612,0.255c-0.247,0-0.446-0.087-0.603-0.258
				c-0.156-0.173-0.235-0.428-0.235-0.765v-2.726c0-0.349-0.015-0.627-0.043-0.836c-0.029-0.211-0.11-0.388-0.239-0.529
				c-0.132-0.142-0.331-0.215-0.596-0.215c-0.214,0-0.416,0.066-0.609,0.192c-0.192,0.124-0.342,0.298-0.45,0.508
				C320.018,474.873,319.956,475.357,319.956,476.051"/>
		</g>
		<g>
			<path style="fill:#5A1A5A;" d="M244.516,475.539c-0.001-0.003-0.001-0.006-0.001-0.011
				C244.515,475.533,244.515,475.536,244.516,475.539z"/>
			<path style="fill:#5A1A5A;" d="M244.598,476.058c0.001,0,0.001,0,0.001,0c-0.031-0.148-0.055-0.294-0.074-0.439
				C244.544,475.765,244.568,475.912,244.598,476.058z"/>
			<path style="fill:#5A1A5A;" d="M245.134,477.561c-0.004-0.006-0.007-0.013-0.011-0.021
				C245.127,477.548,245.13,477.555,245.134,477.561z"/>
			<path style="fill:#5A1A5A;" d="M245.083,477.461c-0.014-0.027-0.027-0.056-0.041-0.084
				C245.055,477.407,245.069,477.434,245.083,477.461z"/>
			<path style="fill:#5A1A5A;" d="M244.748,476.637c0.079,0.25,0.175,0.493,0.286,0.724c-0.113-0.236-0.206-0.479-0.283-0.724
				C244.75,476.637,244.749,476.637,244.748,476.637z"/>
			<path style="fill:#5A1A5A;" d="M250.789,469.329c0.313,0,0.544,0.025,0.809,0.069l0.075-0.477c0,0-0.732-0.225-1.694-0.146
				l-0.076-0.259c0.299-0.063,0.524-0.329,0.524-0.646c0-0.364-0.296-0.659-0.661-0.659c-0.364,0-0.66,0.295-0.66,0.659
				c0,0.317,0.224,0.583,0.522,0.646l0.084,0.289c-1.021,0.14-1.834,0.539-1.834,0.539l0.144,0.441
				c0.618-0.206,1.154-0.331,1.64-0.383C250.139,469.351,250.497,469.329,250.789,469.329z"/>
			<path style="fill:#5A1A5A;" d="M245.122,471.741l0.004-0.005c0.024-0.031,0.047-0.06,0.071-0.089l-0.196-0.141l-0.305-0.223
				c-0.017,0.024-0.497,0.465-0.876,1.28c-0.016-0.026-0.035-0.051-0.056-0.074c-0.114-0.124-0.272-0.187-0.474-0.184
				c-0.003,0-0.006,0-0.009,0c-0.125,0-0.21-0.042-0.267-0.092c0.056-0.071,0.089-0.16,0.089-0.258c0-0.23-0.187-0.418-0.418-0.418
				c-0.23,0-0.418,0.188-0.418,0.418c0,0.231,0.187,0.418,0.418,0.418c0.036,0,0.071-0.006,0.104-0.013
				c0.103,0.114,0.266,0.214,0.505,0.209c0.123-0.001,0.213,0.03,0.273,0.097c0.069,0.076,0.093,0.185,0.1,0.267
				c-0.001,0.001-0.001,0.003-0.002,0.003c-0.272,0.743-0.194,1.669-0.194,1.669l0.661,0.026c0.013-0.337,0.062-0.927,0.232-1.394
				C244.693,472.331,245.105,471.764,245.122,471.741z"/>
			<path style="fill:#5A1A5A;" d="M256.539,469.882c-0.23,0-0.418,0.187-0.418,0.418c0,0.036,0.005,0.07,0.015,0.103
				c-0.115,0.104-0.214,0.267-0.211,0.507c0.002,0.123-0.03,0.212-0.096,0.273c-0.053,0.047-0.12,0.072-0.185,0.088
				c-0.492-0.689-1.097-1.11-1.097-1.11l-0.474,0.508c0.358,0.326,0.725,0.734,1.08,1.244c0.246,0.352,0.499,0.806,0.71,1.259
				l0.64-0.304c0,0-0.292-0.722-0.704-1.37c0.072-0.025,0.144-0.064,0.207-0.12c0.125-0.113,0.187-0.273,0.183-0.474
				c-0.001-0.13,0.042-0.218,0.093-0.276c0.071,0.054,0.16,0.089,0.257,0.089c0.232,0,0.419-0.187,0.419-0.418
				C256.958,470.068,256.771,469.882,256.539,469.882z"/>
			<path style="fill:#5A1A5A;" d="M254.878,475.633c-0.881,0.429-2.33,0.996-4.238,1.262c-0.749,0.104-1.475,0.142-2.143,0.142
				c-0.869,0-1.637-0.065-2.227-0.139c-0.673-0.085-1.199-0.189-1.52-0.261c0.077,0.245,0.171,0.488,0.283,0.724
				c0.002,0.006,0.005,0.013,0.008,0.017c0.013,0.027,0.027,0.056,0.041,0.084c0.013,0.027,0.027,0.054,0.041,0.079
				c0.004,0.007,0.007,0.015,0.011,0.021c0.189,0.357,0.417,0.684,0.675,0.968c0.9,0.984,1.817,1.14,1.826,1.141l0.014,0.002
				l0.013,0.005c0.008,0.003,0.821,0.266,2.057,0.266c1.216,0,2.409-0.245,3.546-0.729c0.842-0.431,1.639-1.085,2.034-1.669
				c0.305-0.452,0.525-0.933,0.656-1.434c0.07-0.266,0.124-0.692,0.092-1.141C255.8,475.137,255.408,475.375,254.878,475.633z"/>
			<path style="fill:#5A1A5A;" d="M245.405,471.949c-0.026,0.037-0.408,0.578-0.709,1.408c-0.226,0.622-0.216,1.527-0.216,1.538
				v0.002c0,0.212,0.012,0.423,0.035,0.632c0,0.005,0,0.008,0.001,0.011c0.002,0.027,0.007,0.052,0.009,0.079
				c0.019,0.145,0.043,0.291,0.074,0.439c0.438,0.111,3.049,0.72,5.968,0.314c1.829-0.255,3.218-0.795,4.062-1.204
				c0.701-0.34,1.151-0.648,1.325-0.774c-0.173-0.643-0.651-1.65-1.09-2.279c-1.253-1.791-2.604-2.25-3.298-2.365
				c-0.265-0.043-0.477-0.068-0.777-0.068c-0.28,0-0.626,0.022-1.089,0.071c-0.464,0.048-0.982,0.17-1.583,0.372
				c-0.842,0.282-1.605,0.724-2.204,1.28l-0.021,0.019C245.804,471.506,245.618,471.678,245.405,471.949z M253.073,471.533
				c0.601,0,1.09,0.488,1.09,1.09c0,0.601-0.489,1.09-1.09,1.09c-0.601,0-1.089-0.489-1.089-1.09
				C251.984,472.021,252.472,471.533,253.073,471.533z M247.922,471.489c0.973,0,1.76,0.789,1.76,1.761s-0.788,1.759-1.76,1.759
				c-0.972,0-1.76-0.787-1.76-1.759S246.951,471.489,247.922,471.489z"/>
		</g>
	</g>
</g>
</svg>
